<?xml version="1.0" encoding="utf-8"?>
<!-- Generator: Adobe Illustrator 16.0.0, SVG Export Plug-In . SVG Version: 6.00 Build 0)  -->
<!DOCTYPE svg PUBLIC "-//W3C//DTD SVG 1.1//EN" "http://www.w3.org/Graphics/SVG/1.1/DTD/svg11.dtd">
<svg version="1.1" id="ah_x5F_small_x5F_flat_x5F_4c_x5F_blackbkgr_x5F_k100_xA0_Image_1_"
	 xmlns="http://www.w3.org/2000/svg" xmlns:xlink="http://www.w3.org/1999/xlink" x="0px" y="0px" width="166.8px"
	 height="217.439px" viewBox="0 0 166.8 217.439" enable-background="new 0 0 166.8 217.439" xml:space="preserve">
<g>
	<path fill-rule="evenodd" clip-rule="evenodd" fill="#0A0A0A" d="M164.419,60.18c-0.17,0.95,0.421,1.73,0.141,2.6
		c1.09,1.59,1.13,3.38,1,5.18c-0.09,1.17-0.26,2.36-0.57,3.5c-0.2,0.74-0.1,1.48-0.29,2.23c-0.439,1.76-1.069,3.45-1.66,5.22
		c0.08,1.35,0.46,2.74,0.4,4.18c-0.05,1.29-0.45,2.47-0.94,3.64c-0.149,0.37-0.319,0.73-0.51,1.14c0.65,1.38-0.359,2.65-0.26,4.1
		c-1.53,0.44-2.4,1.53-3.05,2.85c-0.17,0.35-0.45,0.65-0.67,0.98c-0.79,1.19-1.17,2.5-1.04,3.94c0.22,2.42,0.699,4.77,2.109,6.8
		c-0.739,2.08-1.52,4.11-2.189,6.17c-0.37,1.16-0.931,2.26-1.04,3.5c-0.021,0.27-0.12,0.55-0.101,0.819
		c0.091,1.311-0.359,2.5-0.75,3.7c-0.3,0.88-0.81,1.66-1.64,2.13c-0.49,0.271-0.71,0.74-1.02,1.141
		c-0.79,1.04-1.591,2.069-1.91,3.39c-0.101,0.45-0.38,0.86-0.601,1.29c-0.29,0.56-0.58,1.16-0.52,1.8
		c0.17,1.79-0.69,3.11-1.811,4.351c-0.43,0.47-0.85,0.949-1.189,1.479c-0.42,0.641-0.68,1.351-0.66,2.13
		c0.02,0.561,0.01,1.11,0.01,1.61c-1.439,0.9-1.46,0.89-2.439,2.46c-0.67,1.08-1.54,2.01-2.13,3.16
		c-0.431,0.85-0.771,1.67-0.12,2.59c-0.79,0.61-1.431,1.25-2.07,1.89c-1.78,1.771-3.34,3.74-4.95,5.66c-0.63,0.76-0.6,1.7-0.76,2.58
		c-0.29,1.68-0.46,3.37-0.76,5.04c-0.15,0.78-0.57,1.47-1.16,2.03c-0.65,0.6-1.3,1.189-1.851,1.7c-0.149,1.38-0.06,2.579-0.06,3.819
		c-1.06,0.62-1.59,1.73-2.35,2.63c-1.28,1.53-2.561,3.051-3.99,4.44c-0.12,0.11-0.21,0.24-0.29,0.33
		c-0.17,0.34-0.18,0.689-0.09,0.97c0.5,1.43-0.12,2.57-0.971,3.59c-0.949,1.13-1.979,2.19-2.989,3.261
		c-0.99,1.039-2.13,1.899-3.32,2.71c-0.94,0.649-1.94,1.25-2.65,2.06c-0.3,0.55-0.13,1-0.02,1.48c-1.17,1.05-2.35,2.1-3.66,3.26
		c-1.02,2.43-2.43,4.85-3.979,7.189c-0.351,0.53-0.851,0.94-1.431,1.25c-2.22,1.181-4.29,2.54-6.08,4.351
		c-0.77,0.79-1.67,1.47-2.46,2.26c-1.189,1.18-2.26,2.46-3.31,3.76c-0.74,0.92-1.71,1.54-2.82,1.931
		c-1.189,0.42-2.399,0.75-3.649,0.97c-0.17,0.03-0.29,0.09-0.341,0.26c-0.09-0.42,0.24-0.55,0.521-0.69
		c0.28-0.159,0.59-0.239,0.91-0.289c2.72-0.431,4.67-1.98,6.399-4.07c2.92-3.53,6.29-6.58,10.351-8.8c0.72-0.4,1.3-0.9,1.74-1.601
		c1.01-1.58,2.079-3.13,2.8-4.88c0.68-1.64,1.88-2.85,3.21-3.96c0.63-0.52,1.17-1.05,1.279-1.93c0.101-0.811,0.7-1.32,1.311-1.79
		c1.62-1.24,3.38-2.28,4.82-3.75c1.01-1.03,1.909-2.16,2.89-3.21c0.79-0.83,1.229-1.851,1.04-3.07c-0.14-0.89,0.16-1.65,0.8-2.28
		c1.851-1.84,3.43-3.899,5.09-5.899c0.55-0.67,0.83-1.34,0.74-2.17c-0.16-1.48,0.34-2.66,1.49-3.601c1.31-1.06,1.71-2.55,1.859-4.14
		c0.131-1.271,0.431-2.521,0.58-3.79c0.24-2.16,1.851-3.48,3.101-5.01c1.31-1.61,2.77-3.09,4.16-4.42c0.3-3.78,2.8-6.11,5.08-8.94
		c-0.341-2.33,1.279-4.1,2.81-5.91c0.56-0.68,0.74-1.47,0.86-2.319c0.449-3.261,1.699-6.21,4.09-8.46
		c1.47-1.381,2.17-3.021,2.3-4.841c0.18-2.449,1.02-4.67,1.79-6.939c0.37-1.09,0.76-2.19,1.189-3.26c0.261-0.63,0.24-1.22-0.1-1.84
		c-0.95-1.75-1.32-3.67-1.55-5.62c-0.16-1.31-0.04-2.61,0.61-3.74c1.05-1.81,1.89-3.83,3.939-4.85c0.35-1.05,0.66-2.08,0.57-3.18
		c-0.05-0.66,0.149-1.26,0.399-1.85c0.78-1.84,1.19-3.73,0.721-5.73c-0.44-1.91,0.399-3.6,0.899-5.36
		c0.891-3.04,1.33-6.15,1.44-9.31c0.02-0.77-0.21-1.5-0.49-2.22c-0.81-2.08-1.05-4.13,0.6-5.95c1.37-1.5,1.19-3.23,0.841-4.98
		c-0.49-2.37-0.431-4.76-0.46-7.15c-0.011-1.52-0.301-3.01-0.33-4.65c-2.54-1.03-4.391-3.01-6.54-4.58
		c-0.96-0.71-2.17-0.79-3.33-0.86c-1.55-0.09-3.11-0.04-4.641,0.35c-1.58,0.4-3.17,0.43-4.72-0.14c-1.899-0.7-3.88-0.42-5.83-0.46
		c-1.08-0.02-2.149,0.02-3.21-0.3c-0.77-0.23-1.66-0.38-2.18-0.95c-1.44-1.56-3.32-1.7-5.21-1.91c-1.021-0.11-1.771-0.66-2.33-1.52
		c-0.88-1.34-1.33-2.82-1.36-4.41c-0.029-1.48,0.59-2.63,1.94-3.33c0.75-0.38,1.5-0.75,2.28-1.08c0.609-0.26,1.27-0.48,1.899-1.14
		c-0.61-1.88-0.75-3.96-2.66-5.42c-2.66-2.02-4.83-4.52-6.26-7.58c-1.55-0.64-3.19-0.4-4.76-0.65c-2.61-0.42-5.17-1.01-7.66-1.92
		c-2.44-0.89-4.92-1.66-7.38-2.49c-1.07-0.35-2.101-0.8-3.01-1.47c-0.37-0.27-0.841-0.52-0.7-1.13c1.34,1.23,2.979,1.87,4.68,2.43
		c2.51,0.84,5.01,1.68,7.51,2.55c2.19,0.76,4.471,1.23,6.79,1.57C120,7,121.44,6.78,122.84,7.2c0.3,0.1,0.6,0.15,0.939,0.35
		c-0.13,0.93,0.42,1.63,0.94,2.32c1.109,1.46,2.25,2.89,3.6,4.14c0.55,0.52,1.07,1.07,1.78,1.4c0.52,0.24,0.88,0.69,1.08,1.22
		c0.58,1.55,1.18,3.1,1.54,4.76c-1.53,0.71-3.021,1.43-4.53,2.1c-1.5,0.67-1.87,1.44-1.75,3.44c0.08,1.43,0.57,2.67,1.34,3.87
		c0.49,0.77,1.14,1.04,1.96,1.14c1.101,0.14,2.19,0.39,3.28,0.2c0.89,0.78,1.54,1.72,2.64,2.13c1.16,0.43,2.3,0.83,3.561,0.8
		c1.319-0.03,2.64,0.01,3.96-0.06c1.14-0.06,2.239,0.21,3.25,0.59c1.47,0.55,2.859,0.35,4.3,0.04c2.4-0.52,4.79-0.55,7.18,0.08
		c0.69,0.19,1.23,0.51,1.74,0.96c0.74,0.66,1.47,1.35,2.24,1.97c0.71,0.56,1.439,1.12,2.3,1.47c0.55,0.22,1.06,0.52,1.62,0.81
		c-0.05,2.01,0.35,3.98,0.26,5.98c-0.03,0.62-0.06,1.27,0.15,1.89c0.05,0.15,0.09,0.34,0.04,0.46c-0.46,0.96-0.011,1.9,0.109,2.81
		c0.19,1.42,0.48,2.81,0.391,4.37C166.14,57.74,165.05,58.88,164.419,60.18z"/>
	<path fill-rule="evenodd" clip-rule="evenodd" fill="#0A0A0A" d="M83.28,217.68c-0.48-0.38-1.07-0.49-1.63-0.479
		c-1.16,0.029-2.17-0.381-3.17-0.86c-2.08-0.99-4.03-2.22-6-3.41c-0.89-0.53-1.89-0.81-2.78-1.33c-0.69-0.41-1.38-0.8-1.93-1.39
		c-1.61-1.73-3.52-3.101-5.44-4.44c-1.03-0.72-1.86-1.55-2.61-2.55c-0.76-1-1.4-2.14-2.63-2.78c0.26-1.16-0.32-2.27-0.18-3.41
		c-0.43-0.72-1.12-1.109-1.81-1.35c-1.9-0.66-3.02-2.14-4.18-3.61c-0.44-0.56-0.84-1.159-1.31-1.699c-0.41-0.48-0.6-1.03-0.61-1.62
		c-0.02-0.61-0.3-1.15-0.3-1.761c0-0.289-0.2-0.6-0.39-0.859c-0.48-0.66-1.01-1.3-1.42-1.83c-0.43-0.34-0.83-0.15-1.18-0.33
		c-0.03-0.09-0.07-0.2-0.08-0.31c-0.27-1.9-0.67-3.71-2.08-5.171c-0.89-0.92-1.77-1.77-2.87-2.449c-0.9-0.57-1.61-1.42-2.07-2.431
		c-0.06-0.14-0.16-0.29-0.17-0.439c-0.28-2.601-1.55-4.79-2.88-6.95c-1.02-1.65-2.41-2.97-3.83-4.29v-1.78
		c-0.54-1.25-1.63-1.979-2.5-2.899s-1.69-1.931-2.98-2.271c-0.24-0.319-0.4-0.66-0.66-0.88c-0.62-0.53-0.91-1.229-1.05-1.96
		c-0.09-0.49-0.27-0.9-0.48-1.33c-1.19-2.51-2.57-4.92-3.98-7.31c-0.78-1.33-1.33-2.79-2.19-4.08c-0.2-0.3-0.37-0.61-0.59-0.97
		c0.2-2.23-0.65-4.301-1.43-6.37c-0.42-1.12-0.69-2.24-0.76-3.45c-0.11-2.05-0.38-4.101-0.77-6.12c-0.37-1.9-0.73-3.79-1.12-5.68
		c-0.35-1.7-0.49-3.431-0.95-5.11c-0.31-1.16-0.79-2.23-1.38-3.27c-0.48-0.82-1.04-1.61-1.43-2.47c-0.53-1.17-1.25-2.11-2.5-2.68
		c0.13-1.16,0.29-2.29,0.24-3.44c-0.02-0.4,0.02-0.8,0.02-1.2c-0.01-1.83,0.26-3.64,0.42-5.45c0.1-1.27,0.2-2.54,0.3-3.8
		c0.04-0.52-0.02-1.02,0.17-1.53c0.25-0.64,0.02-1.3-0.25-1.85c-0.76-1.57-1.43-3.19-2.41-4.64c-0.87-1.3-1.09-2.68-0.75-4.2
		c0.32-1.39,0.12-2.77-0.21-4.13c-0.36-1.46-0.77-2.9-1.58-4.19c-0.66-1.04-0.81-2.19-0.76-3.42c0.08-2.15,0.49-4.24,0.82-6.35
		c0.17-1.06,0.42-2.1,0.41-3.18c0-0.16-0.03-0.33,0.02-0.47c0.53-1.44,0.05-2.72-0.85-3.76c-0.82-0.96-1.65-1.89-2.31-2.97
		c0.27-0.1,0.51,0.02,0.63,0.21c0.77,1.17,1.87,2.07,2.6,3.29c1.02,1.72,0.43,3.51,0.24,5.27c-0.28,2.65-0.99,5.25-1.07,7.94
		c-0.03,1.29,0.29,2.43,0.87,3.56c1.4,2.77,2.15,5.67,1.6,8.8c-0.18,1.01-0.02,1.99,0.53,2.89c0.56,0.92,0.97,1.94,1.55,2.84
		c1.41,2.15,1.47,4.46,1.19,6.9c-0.39,3.41-0.79,6.83-0.69,10.27c0.02,0.72-0.07,1.43-0.13,2.24c1.55,1.03,2.19,2.77,3.18,4.25
		c1.83,2.76,2.36,5.89,2.89,9.06c0.63,3.78,1.7,7.5,1.86,11.33c0.11,2.69,1.28,5.021,1.89,7.521c0.03,0.12,0.1,0.229,0.1,0.35
		c0.12,3.62,2.35,6.37,3.94,9.37c1.36,2.57,2.93,5.04,3.84,7.84c0.27,0.851,0.87,1.561,1.63,2.011c1.75,1.05,3.01,2.619,4.42,4.029
		c0.47,0.46,0.82,1.05,0.8,1.7c-0.02,1.13,0.6,1.84,1.34,2.55c2.44,2.36,4.24,5.181,5.06,8.44c0.56,2.21,1.66,3.75,3.51,5.02
		c2.38,1.63,3.73,4.011,4.09,6.88c2.06,1.28,3.17,3.091,3.37,5.44c0.02,0.32,0.11,0.66,0.29,0.9c1.51,1.989,2.68,4.33,5.14,5.38
		c1.74,0.739,2.67,1.979,2.65,3.87c-0.01,0.92,0.36,1.609,1.03,2.189c0.39,0.34,0.71,0.771,0.98,1.2c1.61,2.57,4.46,3.729,6.5,5.77
		c3.45,3.44,8.01,5.051,12.02,7.551c1.13,0.689,2.39,1.08,3.74,1.18C82.41,216.81,83.16,216.8,83.28,217.68z"/>
	<path fill-rule="evenodd" clip-rule="evenodd" fill="#A4693B" d="M164.419,60.18c-0.17,0.95,0.421,1.73,0.141,2.6
		c1.09,1.59,1.13,3.38,1,5.18c-0.09,1.17-0.26,2.36-0.57,3.5c-0.2,0.74-0.1,1.48-0.29,2.23c-0.439,1.76-1.069,3.45-1.66,5.22
		c0.08,1.35,0.46,2.74,0.4,4.18c-0.05,1.29-0.45,2.47-0.94,3.64c-0.149,0.37-0.319,0.73-0.51,1.14c0.65,1.38-0.359,2.65-0.26,4.1
		c-1.53,0.44-2.4,1.53-3.05,2.85c-0.17,0.35-0.45,0.65-0.67,0.98c-0.79,1.19-1.17,2.5-1.04,3.94c0.22,2.42,0.699,4.77,2.109,6.8
		c-0.739,2.08-1.52,4.11-2.189,6.17c-0.37,1.16-0.931,2.26-1.04,3.5c-0.021,0.27-0.12,0.55-0.101,0.819
		c0.091,1.311-0.359,2.5-0.75,3.7c-0.3,0.88-0.81,1.66-1.64,2.13c-0.49,0.271-0.71,0.74-1.02,1.141
		c-0.79,1.04-1.591,2.069-1.91,3.39c-0.101,0.45-0.38,0.86-0.601,1.29c-0.29,0.56-0.58,1.16-0.52,1.8
		c0.17,1.79-0.69,3.11-1.811,4.351c-0.43,0.47-0.85,0.949-1.189,1.479c-0.42,0.641-0.68,1.351-0.66,2.13
		c0.02,0.561,0.01,1.11,0.01,1.61c-1.439,0.9-1.46,0.89-2.439,2.46c-0.67,1.08-1.54,2.01-2.13,3.16
		c-0.431,0.85-0.771,1.67-0.12,2.59c-0.79,0.61-1.431,1.25-2.07,1.89c-1.78,1.771-3.34,3.74-4.95,5.66c-0.63,0.76-0.6,1.7-0.76,2.58
		c-0.29,1.68-0.46,3.37-0.76,5.04c-0.15,0.78-0.57,1.47-1.16,2.03c-0.65,0.6-1.3,1.189-1.851,1.7c-0.149,1.38-0.06,2.579-0.06,3.819
		c-1.06,0.62-1.59,1.73-2.35,2.63c-1.28,1.53-2.561,3.051-3.99,4.44c-0.12,0.11-0.21,0.24-0.29,0.33
		c-0.17,0.34-0.18,0.689-0.09,0.97c0.5,1.43-0.12,2.57-0.971,3.59c-0.949,1.13-1.979,2.19-2.989,3.261
		c-0.99,1.039-2.13,1.899-3.32,2.71c-0.94,0.649-1.94,1.25-2.65,2.06c-0.3,0.55-0.13,1-0.02,1.48c-1.17,1.05-2.35,2.1-3.66,3.26
		c-1.02,2.43-2.43,4.85-3.979,7.189c-0.351,0.53-0.851,0.94-1.431,1.25c-2.22,1.181-4.29,2.54-6.08,4.351
		c-0.77,0.79-1.67,1.47-2.46,2.26c-1.189,1.18-2.26,2.46-3.31,3.76c-0.74,0.92-1.71,1.54-2.82,1.931
		c-1.189,0.42-2.399,0.75-3.649,0.97c-0.17,0.03-0.29,0.09-0.341,0.26h-1.68c-0.48-0.38-1.07-0.49-1.63-0.479
		c-1.16,0.029-2.17-0.381-3.17-0.86c-2.08-0.99-4.03-2.22-6-3.41c-0.89-0.53-1.89-0.81-2.78-1.33c-0.69-0.41-1.38-0.8-1.93-1.39
		c-1.61-1.73-3.52-3.101-5.44-4.44c-1.03-0.72-1.86-1.55-2.61-2.55c-0.76-1-1.4-2.14-2.63-2.78c0.26-1.16-0.32-2.27-0.18-3.41
		c-0.43-0.72-1.12-1.109-1.81-1.35c-1.9-0.66-3.02-2.14-4.18-3.61c-0.44-0.56-0.84-1.159-1.31-1.699c-0.41-0.48-0.6-1.03-0.61-1.62
		c-0.02-0.61-0.3-1.15-0.3-1.761c0-0.289-0.2-0.6-0.39-0.859c-0.48-0.66-1.01-1.3-1.42-1.83c-0.43-0.34-0.83-0.15-1.18-0.33
		c-0.03-0.09-0.07-0.2-0.08-0.31c-0.27-1.9-0.67-3.71-2.08-5.171c-0.89-0.92-1.77-1.77-2.87-2.449c-0.9-0.57-1.61-1.42-2.07-2.431
		c-0.06-0.14-0.16-0.29-0.17-0.439c-0.28-2.601-1.55-4.79-2.88-6.95c-1.02-1.65-2.41-2.97-3.83-4.29v-1.78
		c-0.54-1.25-1.63-1.979-2.5-2.899s-1.69-1.931-2.98-2.271c-0.24-0.319-0.4-0.66-0.66-0.88c-0.62-0.53-0.91-1.229-1.05-1.96
		c-0.09-0.49-0.27-0.9-0.48-1.33c-1.19-2.51-2.57-4.92-3.98-7.31c-0.78-1.33-1.33-2.79-2.19-4.08c-0.2-0.3-0.37-0.61-0.59-0.97
		c0.2-2.23-0.65-4.301-1.43-6.37c-0.42-1.12-0.69-2.24-0.76-3.45c-0.11-2.05-0.38-4.101-0.77-6.12c-0.37-1.9-0.73-3.79-1.12-5.68
		c-0.35-1.7-0.49-3.431-0.95-5.11c-0.31-1.16-0.79-2.23-1.38-3.27c-0.48-0.82-1.04-1.61-1.43-2.47c-0.53-1.17-1.25-2.11-2.5-2.68
		c0.13-1.16,0.29-2.29,0.24-3.44c-0.02-0.4,0.02-0.8,0.02-1.2c-0.01-1.83,0.26-3.64,0.42-5.45c0.1-1.27,0.2-2.54,0.3-3.8
		c0.04-0.52-0.02-1.02,0.17-1.53c0.25-0.64,0.02-1.3-0.25-1.85c-0.76-1.57-1.43-3.19-2.41-4.64c-0.87-1.3-1.09-2.68-0.75-4.2
		c0.32-1.39,0.12-2.77-0.21-4.13c-0.36-1.46-0.77-2.9-1.58-4.19c-0.66-1.04-0.81-2.19-0.76-3.42c0.08-2.15,0.49-4.24,0.82-6.35
		c0.17-1.06,0.42-2.1,0.41-3.18c0-0.16-0.03-0.33,0.02-0.47c0.53-1.44,0.05-2.72-0.85-3.76c-0.82-0.96-1.65-1.89-2.31-2.97v-1.68
		c0.51-0.34,0.19-0.87,0.29-1.3c0.44-1.99,0.71-3.99,0.23-6.01c-0.06-0.27-0.09-0.6,0.02-0.83c0.48-1.11,0.64-2.25,0.41-3.4
		c0.62-0.29,1.18-0.5,1.68-0.81c1.89-1.17,3.87-2.17,5.85-3.17c0.64-0.32,1.19-0.78,1.74-1.23c0.78-0.63,1.47-1.34,2.17-1.95
		c2-0.21,3.94-0.31,5.77-1.02c0.65-0.26,1.33-0.51,2.05-0.39c0.58,0.41,1.17,0.72,1.81,0.95c1.03,0.35,1.97,0.9,2.72,1.65
		c0.51,0.51,1.06,0.78,1.7,1c1.77,0.58,3.58,0.99,5.39,1.39c1.24,0.28,2.5,0.44,3.76,0.02c0.59-0.2,1.19-0.38,1.81-0.58
		c0.36-0.95,0.51-1.92,0.54-2.9c0.03-1,0.01-2,0-3c0-0.36-0.04-0.69-0.15-1.05c-0.63-2.05-1.56-3.9-3.25-5.37
		c0.33-1.72,0.26-3.47,0.29-5.18c1.08-0.44,2.1-0.71,3.22-0.71c0.82-0.01,1.56-0.59,2.35-0.76c1.81-0.39,3.3-1.37,4.69-2.46
		c1.28-1.02,2.73-1.56,4.25-2c1.24-0.37,2.5-0.72,3.74-1.1c2.41-0.73,4.79-1.58,7.25-2.17c0.64-0.16,1.32-0.52,1.97-0.29
		c0.91,0.33,1.7,0.06,2.54-0.18c1.32-0.37,2.65-0.85,4-1.01c2.44-0.3,4.77-1.11,7.22-1.38c1.64-0.17,3.27-0.57,4.93-0.57
		c1.04-0.01,2.05,0.04,3.09,0.2c1.79,0.27,3.59,0.48,5.36,0.91c0.88,0.21,1.79,0.42,2.71,0.26c0.779-0.12,1.56-0.24,2.319-0.43
		c1.65-0.41,3.23-0.97,4.65-1.93h0.24c1.34,1.23,2.979,1.87,4.68,2.43c2.51,0.84,5.01,1.68,7.51,2.55
		c2.19,0.76,4.471,1.23,6.79,1.57C120,7,121.44,6.78,122.84,7.2c0.3,0.1,0.6,0.15,0.939,0.35c-0.13,0.93,0.42,1.63,0.94,2.32
		c1.109,1.46,2.25,2.89,3.6,4.14c0.55,0.52,1.07,1.07,1.78,1.4c0.52,0.24,0.88,0.69,1.08,1.22c0.58,1.55,1.18,3.1,1.54,4.76
		c-1.53,0.71-3.021,1.43-4.53,2.1c-1.5,0.67-1.87,1.44-1.75,3.44c0.08,1.43,0.57,2.67,1.34,3.87c0.49,0.77,1.14,1.04,1.96,1.14
		c1.101,0.14,2.19,0.39,3.28,0.2c0.89,0.78,1.54,1.72,2.64,2.13c1.16,0.43,2.3,0.83,3.561,0.8c1.319-0.03,2.64,0.01,3.96-0.06
		c1.14-0.06,2.239,0.21,3.25,0.59c1.47,0.55,2.859,0.35,4.3,0.04c2.4-0.52,4.79-0.55,7.18,0.08c0.69,0.19,1.23,0.51,1.74,0.96
		c0.74,0.66,1.47,1.35,2.24,1.97c0.71,0.56,1.439,1.12,2.3,1.47c0.55,0.22,1.06,0.52,1.62,0.81c-0.05,2.01,0.35,3.98,0.26,5.98
		c-0.03,0.62-0.06,1.27,0.15,1.89c0.05,0.15,0.09,0.34,0.04,0.46c-0.46,0.96-0.011,1.9,0.109,2.81c0.19,1.42,0.48,2.81,0.391,4.37
		C166.14,57.74,165.05,58.88,164.419,60.18z"/>
	<path fill-rule="evenodd" clip-rule="evenodd" fill="#C67F49" d="M17.75,129.52c-0.026-0.394-0.263-0.729-0.24-1.151
		c0.078-1.391-0.244-2.742-0.421-4.11c-0.192-1.486-0.495-2.945-0.764-4.413c-0.255-1.391-0.424-2.803-0.768-4.17
		c-0.298-1.187-0.4-2.398-0.652-3.589c-0.238-1.127-0.524-2.217-1.03-3.253c-0.87-1.782-1.861-3.498-2.872-5.2
		c-0.338-0.57-0.893-1.012-1.4-1.568c0-1.227-0.099-2.513,0.023-3.777c0.19-1.968,0.337-3.937,0.493-5.906
		c0.127-1.608,0.344-3.213,0.453-4.829c0.086-1.279-0.314-2.421-0.848-3.534c-0.703-1.465-1.437-2.914-2.323-4.283
		c-0.229-0.354-0.325-0.793-0.441-1.09c0.822-4.461-0.249-8.429-2.386-12.074c-0.066-1.503,0.199-2.857,0.44-4.219
		c0.219-1.239,0.305-2.503,0.533-3.74c0.258-1.401,0.417-2.803,0.468-4.229c0.071-1.971-0.814-3.512-2.043-4.912
		c-0.339-0.386-0.794-0.668-1.123-1.068c-0.175-1.205,0.208-2.288,0.357-3.374c0.064-0.466,0.144-0.934,0.149-1.405
		c0.013-1.24,0.002-2.48,0.004-3.72c0.001-1.028-0.091-2.066,0.361-3.09c0.977-0.311,1.93-0.814,2.836-1.359
		c0.786-0.473,1.59-0.901,2.411-1.29c1.239-0.588,2.352-1.32,3.263-2.351c0.397-0.449,0.813-0.882,1.159-1.255
		c2.244-0.229,4.296-0.76,6.385-1.227c0.966,0.726,2.153,1.114,3.282,1.779c0.697,1.301,2.122,1.584,3.413,1.969
		c1.915,0.57,3.865,1.065,5.833,1.392c1.518,0.252,3.086,0.215,4.603-0.24c0.604-0.181,1.196-0.372,1.776-0.631
		c1.068-0.478,1.507-1.316,1.646-2.419c0.191-1.526,0.432-3.047,0.468-4.587c0.033-1.439-0.245-2.845-0.795-4.153
		c-0.692-1.643-1.546-3.217-2.772-4.584c0-0.663,0-1.338,0-2.037c0.283-0.355,0.678-0.455,1.138-0.466
		c2.442-0.059,4.612-0.966,6.669-2.194c0.679-0.405,1.311-0.881,1.938-1.369c1.374-1.07,3.063-1.466,4.684-1.907
		c2.316-0.63,4.603-1.343,6.885-2.078c1.622-0.522,3.251-1.013,4.985-0.842c1.061,0.105,2.018-0.342,3.016-0.543
		c1.033-0.208,2.02-0.694,3.076-0.774c1.896-0.145,3.671-0.838,5.538-1.13c1.274-0.199,2.561-0.475,3.831-0.604
		c1.384-0.141,2.808-0.699,4.22-0.078c2.365,0.131,4.661,0.652,6.974,1.131c1.104,0.229,2.287,0.128,3.444-0.043
		c2.063-0.305,3.909-1.18,5.769-2.043c0.959,0.843,2.085,1.302,3.229,1.762c2.707,1.089,5.47,2.016,8.246,2.9
		c2.284,0.727,4.588,1.343,6.991,1.628c1.147,0.136,2.291,0.107,3.49,0.221c2.036,3.006,4.207,5.923,7.475,8.27
		c0.326,0.501,0.666,1.328,0.829,2.344c-1.137,0.408-2.108,1.077-3.166,1.584c-1.719,0.823-2.54,2.252-2.631,4.071
		c-0.132,2.656,0.677,5.062,2.268,7.188c0.382,0.51,0.936,0.831,1.564,1.016c1.327,0.391,2.657,0.745,4.126,0.705
		c1.181,1.137,2.61,1.962,4.215,2.478c0.752,0.242,1.512,0.452,2.32,0.4c0.272-0.018,0.553-0.04,0.821,0.094
		c0.529,0.265,1.133,0.229,1.645,0.097c1.436-0.369,2.809-0.221,4.203,0.181c1.368,0.394,2.751,0.69,4.204,0.595
		c1.15-0.075,2.243-0.406,3.364-0.604c0.992-0.175,1.968-0.219,2.946,0.001c0.688,0.155,1.429,0.062,2.102,0.496
		c0.933,0.761,1.979,1.498,2.878,2.383c0.901,0.888,2.01,1.369,3.159,1.882c0.045,4.326-0.255,8.625,0.727,12.868
		c-0.695,1.382-1.803,2.519-2.398,4.191c0,0.704,0.008,1.622-0.002,2.539c-0.008,0.779,0.358,1.456,0.621,2.146
		c0.457,1.204,0.628,2.35,0.415,3.679c-0.224,1.39-0.488,2.79-0.598,4.212c-0.131,1.687-0.76,3.292-1.417,4.852
		c-0.48,1.14-0.601,2.256-0.293,3.466c0.462,1.813,0.323,3.576-0.582,5.265c-0.621,1.158-0.781,2.393-0.343,3.674
		c0.074,0.217,0.082,0.474-0.08,0.748c-1.842,1.248-3.153,3.029-4.255,4.975c-0.611,1.079-0.892,2.259-0.919,3.514
		c-0.042,1.873,0.122,3.711,0.721,5.495c0.327,0.974,0.718,1.924,1.224,2.88c-0.274,0.958-0.573,1.938-1.089,2.832
		c-0.776,1.346-1.031,2.898-1.728,4.286c-0.216,0.43-0.329,1.056-0.308,1.606c0.063,1.532-0.328,2.97-0.854,4.461
		c-1.084,0.993-2.208,2.028-3.026,3.366c-0.563,0.919-1.067,1.85-1.383,2.874c-0.105,0.345-0.213,0.669-0.45,0.941
		c-1.694-0.711-3.007-1.917-4.24-3.238c-3.36-3.603-6.832-7.104-11.153-9.557c-3.263-1.854-6.123-4.305-9.413-6.11
		c-1.048-0.575-1.947-1.399-2.769-2.282c-0.763-0.821-1.633-1.381-2.807-1.404c-0.941-0.019-1.394-0.711-1.714-1.472
		c-1.12-2.654-3.509-4.07-5.648-5.691c-0.685-0.519-1.689-0.414-2.477,0.185c-0.765,0.581-1.538,1.149-2.305,1.726
		c-0.786,0.591-1.643,0.97-2.653,0.972c-1.191,0.002-2.144,0.68-3.026,1.328c-1.287,0.944-2.611,1.832-3.92,2.745
		c-0.958,0.669-2.017,0.918-3.183,0.791c-2.481-0.271-4.938,0.284-7.418,0.249c-0.874-0.012-1.679,0.473-2.472,0.864
		c-2.295,1.132-4.532,2.385-6.908,3.349c-0.556,0.226-1.113,0.485-1.727,0.175c-0.732-0.918-1.654-0.961-2.703-0.654
		c-1.789,0.525-3.521,0.23-5.48-0.389c0.722-2.096,1.684-3.976,1.881-6.173c-0.878-0.634-1.964-1.192-2.13-2.483
		c-1.306-0.756-2.65-1.242-4.045-1.605c-0.696-0.182-1.399-0.333-2.09-0.536c-1.296-0.38-2.218-1.1-2.268-2.505
		c-0.4-0.479-0.958-0.747-1.013-1.381c0.86-2.505,2.193-3.07,5.268-2.216c0.597-0.143,0.927-0.543,1.048-1.137
		c-0.181-0.425-0.71-0.386-1.021-0.928c-0.171-1.21,1.122-1.448,1.844-2.028c0.867-0.697,1.935,0.018,2.88-0.074
		c1.2-0.947,1.877-3.129,1.389-4.425c-0.21-0.56-0.631-0.985-1.171-1.133c-1.328-0.363-2.535-1.1-4.002-1.057
		c-2.407,0.07-3.43-0.946-3.649-3.397c-0.028-0.318-0.021-0.64-0.089-0.954c-0.424-1.963,0.42-3.641,2.241-4.467
		c0.504-0.229,1.067-0.35,1.453-0.763c0.148-0.377,0.231-0.83-0.002-1.06c-0.8-0.787-0.614-2.046-1.482-2.819
		c-0.479-0.427-0.235-1.079,0.174-1.515c0.605-0.645,0.768-1.465,1.084-2.267c-0.413-0.836-0.651-1.685-0.502-2.647
		c0.068-0.438-0.014-1.024-0.284-1.388c-0.889-1.196-0.533-2.243,0.225-3.293c0.071-0.099,0.103-0.215,0.117-0.336
		c-0.384-1.038-2.26-1.447-3.021-0.563c-0.694,0.807-1.485,1.595-1.781,2.675c-0.258,0.936-0.802,1.468-1.807,1.381
		c-0.997-0.086-1.461-0.724-1.598-1.656c-0.029-0.198-0.05-0.397-0.143-0.68c-0.832-0.703-1.188-1.969-2.416-2.443
		c-0.389-0.15-0.425-0.646-0.402-1.062c0.058-1.049,0.278-2.046,0.771-2.993c0.934-1.794,0.187-5.05-1.401-6.277
		c-0.899-0.695-0.962-1.11-0.246-1.97c0.208-0.25,0.461-0.451,0.361-0.933c-0.6-0.558-1.345-1.084-2.146-1.518
		c-0.759-0.411-1.521-0.431-2.233,0.169c-0.751,0.633-1.636,0.996-2.596,1.17c-0.971,0.176-1.773,0.713-2.602,1.192
		c-0.798,0.461-1.683,0.737-2.399,1.104c-0.149,0.131-0.236,0.19-0.238,0.26c-0.066,2.143-1.421,3.849-1.971,5.828
		c-0.259,0.932-0.201,1.883-0.307,2.761c0.401,0.512,0.828,0.39,1.256,0.251c0.418-0.136,0.833-0.277,1.271-0.347
		c1.2-0.191,1.887,0.162,2.051,1.069c0.208,1.152-0.43,2.082-1.561,2.284c-0.344,0.062-0.726-0.041-1.11,0.296
		c0.706,0.364,1.667,0.148,2.068,0.989c0.374,0.784-0.268,1.565-0.038,2.333c0.561,0.657,1.295,0.792,1.917,0.884
		c0.222-0.042,0.309-0.052,0.37-0.1c1.433-1.11,1.706-1.059,2.68,0.459c0.623,0.972,0.976,2.015,0.893,3.177
		c-0.085,1.194-0.243,2.382-0.287,3.582c-0.023,0.65-0.254,1.266-1.101,1.469c-1.006-0.514-0.768-1.61-1.085-2.46
		c-0.319-0.852-0.764-1.661-1.241-2.534c-1.09-0.1-2.174-0.845-3.272,0.012c-0.266,0.471-0.23,0.936-0.183,1.422
		c0.124,1.268-0.397,1.796-1.666,1.657c-0.913-0.1-1.827-0.194-2.736-0.328c-0.426-0.063-0.883-0.081-1.347,0.251
		c-0.093,1.049-0.707,1.724-1.78,2.055c-0.608,0.188-0.95,0.704-1.119,1.455c0.481,1.245,0.786,2.574-0.356,3.813
		c-0.273,0.296-0.242,0.829-0.296,1.264c0.474,0.515,1.326,0.134,1.8,0.988c-0.025,1.367-1.773,2.008-2,3.621
		c1.678,0.082,2.661,1.854,4.516,1.745c0.828-0.049,1.352,0.784,2.066,1.216c2.25-0.493,4.505-1.442,6.855-0.405
		c0.413,0.183,0.73,0.493,0.762,0.991c-0.696,1.49-1.804,2.133-3.25,1.614c-1.744-0.625-3.397-0.807-5.083,0.109
		c-0.351,0.191-0.788,0.17-1.18,0.069c-2.007-0.519-3.905,0.6-5.891,0.383c-0.068-0.007-0.133,0.081-0.229,0.213
		c0.075,0.62,0.57,1.147,0.539,1.721c0.487,0.307,0.841,0.116,1.189,0.089c0.894-0.067,1.499,0.265,1.618,1.198
		c0.1,0.777,0.888,1.259,0.739,2.022c0.577,0.411,1.332,0.191,1.678,0.877c0.157,0.501-0.125,0.786-0.593,0.956
		c-0.266,0.096-0.554,0.158-0.826,0.111c-1.991-0.346-4.06-0.069-6.006-0.731c-1.061-0.361-1.952-0.114-2.826,0.64
		c0.207,0.654,0.618,1.259,0.558,1.945c0.882,0.322,1.725-0.422,2.638,0.184c0.273,1.542-0.719,2.612-1.575,3.703
		c-0.015,1.135,0.388,1.812,1.379,1.893c2.229,0.183,3.921,1.641,5.922,2.354c0.778,0.277,0.89,0.946,0.446,1.679
		c-0.841,1.389-2.083,2.17-3.654,2.472c-0.382,0.074-0.813,0.008-1.085,0.374c0.201,2.125-0.368,3.144-2.328,4.18
		c-0.418,0.221-0.912,0.369-0.877,0.979c1.785,1.64,3.354,0.111,5.004-0.314c0.333-0.244,0.443-0.646,0.655-0.98
		c0.695-1.09,1.76-1.355,2.584-0.414c0.965,1.1,2.116,1.12,3.267,1.104c0.47-0.167,0.602-0.532,0.822-0.808
		c1.345-1.68,3.497-1.705,5.044-1.236c0.953,0.288,1.352,1.081,1.323,2.06c-0.024,0.794-0.298,1.569-0.911,2.025
		c-1.507,1.121-3.108,2.066-5.131,1.835c-1.301-0.148-2.592-0.516-4.021-0.271c-0.553,0.833-1.818,1.22-1.804,2.341
		c0.119,0.311,0.148,0.391,0.209,0.442c0.657,0.554,1.324,1.11,0.91,2.114c-0.306,0.742-1.413,1.297-2.468,1.086
		c-1.069-0.214-2.153-0.063-3.214-0.283c-0.424-0.089-0.878-0.06-1.341,0.126c-0.418,0.462-1.054,0.871-0.605,1.734
		c0.939,0.49,1.961,0.526,3.008,0.436c0.811-0.07,1.553-0.003,1.675,1.047c-0.071,0.303-0.278,0.533-0.555,0.572
		c-3.084,0.439-5.493,2.469-8.315,3.519c-0.523,0.195-1.033,0.423-1.583,0.538C18.226,129.755,17.95,129.799,17.75,129.52z"/>
	<path fill-rule="evenodd" clip-rule="evenodd" fill="#3D5F37" d="M28.813,125.038c-0.208-0.237-0.415-0.475-0.662-0.757
		c-1.375,0.575-2.728,0.183-4.076-0.045c-0.669-0.378-0.547-1.006-0.525-1.642c0.314-0.416,0.647-0.857,0.954-1.263
		c1.33-0.497,2.64,0.418,3.925-0.104c0.45,0.019,0.781,0.376,1.268,0.46c0.658-0.123,1.345-0.286,1.86-0.754
		c0.199-0.397,0.116-0.746,0.095-1.045c-0.399-0.49-1.19-0.306-1.359-1.01c-0.083-0.447-0.106-0.919,0.012-1.426
		c0.684-0.57,1.533-1.005,1.791-1.938c1.015-0.086,1.9-0.063,2.822,0.055c1.234,0.157,2.48,0.578,3.515,0.319
		c0.498-0.229,0.289-0.462,0.38-0.672c1.662-0.017,2.879-0.729,3.423-2.535c0.038-0.469,0.05-1.065-0.44-1.639
		c-0.587-0.572-1.422-0.352-2.202-0.413c-0.828-0.066-1.502,0.235-2.249,0.59c-0.84,0.4-0.723,1.426-1.589,1.799
		c-1.005-0.199-2.168,0.069-3.27-0.563c-0.328-0.729-0.75-1.454-1.829-1.318c-0.901,0.459-0.688,1.64-1.408,2.269
		c-0.291,0.075-0.556-0.278-1.069-0.027c-0.577,0.494-1.469,0.812-2.402,1.118c-0.854-0.459-1.763-0.798-2.708-0.93
		c0.094-0.69,0.398-1.07,0.567-1.458c0.619-0.607,1.493-0.582,2.12-1.152c0.572-0.521,0.51-1.465,1.345-1.64
		c-0.055-0.508-0.486-0.632-0.683-1.133c-0.13-0.372,0.086-0.759,0.644-1.16c1.317,0.278,2.498-0.387,3.746-1.143
		c0.157-0.572,0.473-1.144,1.105-1.403c-0.026-0.977-0.756-0.708-1.22-0.834c-0.332-0.134-0.438-0.468-0.644-0.687
		c-0.434,0-0.833,0-1.181,0c-0.575-0.207-0.831-0.663-1.009-1.156c-1.055,0.059-1.942-0.455-2.937-0.272
		c-0.44-0.413-0.875-0.82-1.312-1.23c-0.136-0.524-0.079-1.034-0.049-1.5c1.217-1.02,1.217-1.02,2.035-3.371
		c-1.184,0.085-2.324,0.817-3.494,0.362c0.01-0.685,0.551-0.784,0.668-1.218c-0.124-0.589-0.969-0.532-1.1-1.157
		c0.735-1.18,2.265-1.779,3.561-1.364c0.34,0.109,0.685,0.221,0.998,0.387c0.493,0.261,1.013,0.323,1.5,0.116
		c0.572-0.244,1.069-0.158,1.605,0.067c1.069,0.448,2.167,0.244,3.217,0.239c0.088-0.302,0.11-0.455-0.047-0.604
		c-0.634-0.336-1.41,0.134-2.055-0.284c-0.063-0.041-0.102-0.121-0.153-0.184c-0.126-0.455,0.578-0.581,0.409-1.056
		c-0.122-0.421-0.565-0.136-0.802-0.353c-0.384-0.462,0.154-0.891,0.069-1.397c-0.674-0.881-1.385-0.265-2.117,0.009
		c-0.311-0.118-0.658-0.21-0.883-0.521c-0.316-0.442,0.136-0.821,0.127-1.16c-0.21-0.618-0.796-0.005-1.021-0.427
		c0.363-1.209,0.891-1.57,2.034-1.301c0.94,0.221,1.8-0.108,2.681-0.302c0.384-0.084,0.755-0.226,1.101-0.332
		c0.745,0.109,1.362,0.602,2.204,0.454c0.427-0.173,0.844-0.546,1.397-0.704c1.17-0.335,2.273-0.196,3.362,0.258
		c0.663,0.277,1.345,0.418,1.856,0.465c0.581-0.181,0.518-0.581,0.699-0.85c0.348-0.169,0.925,0.023,1.057-0.738
		c-0.725-0.507-1.538-0.901-2.512-0.859c-1.07,0.047-2.106,0.448-3.173,0.269c-0.638,0.398-1.19,0.928-2.092,0.682
		c-0.587-0.241-0.744-1.151-1.522-1.361c-0.676,0-1.352,0-1.992,0c-0.668-0.387-0.86-1.242-1.632-1.473c-0.436,0-0.872,0-1.221,0
		c-0.499-0.239-0.551-0.648-0.697-0.962c0.25-0.506,0.711-0.727,1.08-1.192c0.005-0.609,0.447-1.053,1.009-1.39
		c0.33-0.197,0.613-0.386,0.482-0.911c-0.838-0.041-1.703-0.082-2.554-0.123c-0.039-0.583,0.505-0.688,0.654-1.179
		c0.011-0.243,0.028-0.6,0.043-0.938c0.26-0.58,0.895-0.823,1.161-1.424c-0.141-0.215-0.29-0.442-0.438-0.668
		c0.064-0.201,0.125-0.387,0.198-0.615c-0.215-0.261-0.439-0.534-0.654-0.795c0.336-1.678,1.622-2.246,2.962-2.548
		c0.233-0.514-0.239-0.786-0.122-1.119c0.086-0.334,0.319-0.493,0.568-0.71c0.759,0.014,1.534-0.125,2.337,0.062
		c0.878,0.204,1.788,0.277,2.687,0.385c0.14,0.017,0.294-0.089,0.383-0.118c0.533-0.594,0.177-0.97-0.267-1.353
		c0.268-0.506,0.326-1.053,0.358-1.64c0.522-0.234,1.023-0.458,1.58-0.707c0.792,0.388,1.692,0.49,2.584,0.508
		c0.585,0.608,0.613,1.407,0.92,2.1c0.176,0.134,0.363,0.277,0.583,0.445c0.004,0.962,0.181,1.912,0.425,2.952
		c0.63-0.327,0.783-0.799,0.768-1.248c-0.057-1.638,0.355-3.249,0.23-5c-0.407-0.475-0.178-1.429-1.088-1.8
		c-0.229-0.358,0.096-1.215-0.832-1.101c-0.406,0.249-0.305,0.823-0.79,1.125c-1.154,0.311-2.128-0.323-3.101-0.835
		c-0.412-1.019,0.149-1.845,0.359-2.66c-0.791-0.981-2.032-0.123-2.858-0.896c-0.131-0.171-0.064-0.403-0.007-0.624
		c0.859-0.775,2.038-0.117,2.948-0.605c0.186-0.592,0.089-1.175,0.368-1.611c-0.093-0.461-0.38-0.666-0.671-0.865
		c-1.036,0.189-2.029,0.426-2.881,0.851c-0.786-0.052-1.31-0.319-1.455-1.145c0.136-0.297,0.3-0.655,0.464-1.013
		c0.104-0.394-0.267-0.677-0.24-1.03c0.421-0.746,0.421-0.746,0.479-1.757c0.445-0.394,0.874-0.867,0.686-1.533
		c0.494-0.446,0.88-0.848,0.972-1.483c0.11-0.341-0.279-0.614-0.237-1.018c0.243-0.411,0.229-0.987,0.797-1.39
		c1.121-0.288,2.26-0.824,3.336-1.518c0.632-0.407,1.296-0.726,2.1-0.771c1.133-0.063,1.965-0.777,2.73-1.599
		c0.479,0,0.954,0,1.582,0c0.552,0.24,1.249,0.524,1.764,1.121c0.391,0.454,0.968,0.494,1.544,0.599
		c0.156,0.605-0.423,1.042-0.214,1.454c-0.386,0.527-1.248,0.257-1.141,1.1c0.139,0.296,0.455,0.393,0.74,0.51
		c1.035,0.425,1.404,1.276,1.666,2.296c0.218,0.852,0.119,1.73,0.405,2.575c0.189,0.56,0.105,1.2-0.271,1.718
		c-0.604,0.832-0.952,1.739-0.892,2.778c0.021,0.356-0.357,0.651-0.123,1.058c0.267,0.275,0.68,0.023,1.024,0.217
		c0.468,0.348,0.929,0.733,0.785,1.44c0.406,0.225,0.75,0.415,1.077,0.596c0.236,0.578,0.021,1.15,0.155,1.777
		c0.083,0.236,0.302,0.457,0.61,0.634c0.455,0,0.927,0,1.335,0c0.289-0.172,0.414-0.37,0.421-0.626
		c0.025-0.892,0.436-1.595,1.055-2.202c0.369-0.361,0.816-0.674,0.672-1.199c1.141-0.815,2.292-0.378,3.312-0.53
		c0.847,0.711,0.865,0.747,0.937,1.749c-0.379,0.503-0.761,1.011-1.128,1.499c-0.082,0.343-0.098,0.656-0.039,0.812
		c0.231,0.523,0.683,0.467,0.883,0.634c0.2,0.443-0.188,0.667-0.169,0.951c0,0.429,0.499,0.564,0.477,0.964
		c0.023,0.405-0.469,0.547-0.471,1.043c0.339,0.501,0.858,1.022,0.891,1.833c-0.079,0.308-0.463,0.464-0.626,0.798
		c-0.029,0.305-0.059,0.619-0.085,0.885c-0.375,0.527-1.281,0.573-1.148,1.323c0.211,0.584,0.774,0.375,1.047,0.709
		c0.245,0.253,0.135,0.588,0.147,0.898c0.011,0.277,0.002,0.556,0.002,0.745c0.247,0.419,0.67,0.177,0.957,0.467
		c-0.058,0.572-0.109,1.185,0.018,1.764c-0.627,0.555-1.373,0.751-2.08,0.978c-0.994,0.319-1.553,0.912-1.551,1.915
		c-0.229,0.255-0.573,0.274-0.659,0.575c-0.22,0.559,0.174,0.902,0.468,1.313c0,0.655,0,1.332,0,2.018
		c0.276,0.307,0.542,0.602,0.807,0.896c0.113,0.246-0.281,0.423-0.068,0.742c1.313,0.844,2.826,0.201,4.239,0.437
		c0.343,0.079,0.329,0.535,0.847,0.682c0.251,0,0.687,0,1.033,0c0.531,0.313,0.975,0.575,1.426,0.84
		c0.215,0.321,0.434,0.65,0.702,1.052c-0.347,0.616,0.265,1.215,0.046,2.055c-0.267,0.412-0.661,0.941-0.728,1.663
		c-0.053,0.566-0.512,0.973-1.046,1.351c-0.898,0.08-1.791-0.313-2.777-0.455c-0.466,0.629-1.074,1.108-1.812,1.416
		c-0.114,0.048-0.106,0.067-0.23,0.581c0.416,0.363,0.826-0.028,1.231-0.014c0.286,0.156,0.449,0.403,0.336,0.697
		c-0.35,0.908-0.794,1.751-1.911,2.088c-0.782-0.363-1.519-1.086-2.599-0.904c-0.332,0.209-0.699,0.44-1.033,0.65
		c-0.247,0.265-0.103,0.571-0.21,0.893c-0.385,0.198-1.014,0.175-1.122,0.876c0.257,0.678,1.227,0.522,1.549,1.26
		c-0.113,0.266-0.248,0.581-0.404,0.949c0.526,0.217,0.87,0.604,1.247,1.003c2.503,0.618,5.076,1.105,7.194,2.392
		c0.352,0.472,0.121,0.867,0.263,1.161c0.557,0.925,1.874,0.819,2.355,1.88c-0.435,0.553-0.645,1.184-0.767,1.915
		c-0.095,0.565-0.188,1.184-0.402,1.735c-0.214,0.553-0.584,1.037-1.011,1.463c-0.181,0.181-0.286,0.383-0.122,0.753
		c1.688,0.076,3.402,0.707,5.184-0.012c0.826-0.333,1.718-0.275,2.354,0.197c0.353,0.352,0.245,0.659,0.324,0.922
		c0.63,1.407-0.592,1.933-1.345,2.771c0.721,1.811-0.917,2.716-1.723,4.077c0.287,1.142,0.481,2.356-0.339,3.453
		c-0.112,0.749-0.996,1.173-0.727,1.953c-0.447,0.268-0.849,0.036-1.258,0.367c-0.328,0.395-0.109,1.172-0.831,1.718
		c-0.618,0-1.404,0-1.935,0c-0.65,0.334-0.401,0.794-0.626,1.107c-0.35,0.205-0.768,0-1.167,0.13
		c-0.646,0.296-0.699,1.137-1.324,1.418c-0.025,0.395-0.045,0.709-0.063,0.982c-0.342,0.583-0.97,0.57-1.514,0.865
		c-0.147,0.879-0.757,1.277-1.638,1.559c-0.978,0.313-1.964,0.573-2.955,0.825c-0.864,0.22-1.611-0.226-2.364-0.399
		c-0.433-1.742-2.188-2.35-2.783-3.823c-0.807,0-1.517,0-2.202,0c-0.417,0.388-0.445,0.853-0.438,1.342
		c0.022,1.588,0.041,3.17,0.187,4.76c0.161,1.744-0.038,3.52,0.081,5.271c0.122,1.786,0.077,3.582,0.255,5.354
		c0.143,1.425,0.232,2.908,0.862,4.252c1.041,0.367,1.461-0.314,1.891-0.974c-0.093-0.27-0.372-0.294-0.531-0.429
		c0.186-0.82,1.03-1.331,1.024-2.253c0.394-0.06,0.737-0.371,1.201-0.33c-0.115-0.324,0.036-0.682-0.337-0.826
		c0.194-0.362,0.529-0.566,0.85-0.71c0.055-0.267,0.023-0.459-0.12-0.653c0.18-0.193,0.355-0.384,0.533-0.575
		c0.242,0.52,0.276,1.173,0.937,1.417c0.023,0.235-0.343,0.171-0.293,0.539c0.293,0.462,0.872,0.557,1.472,0.65
		c0.086,0.322-0.286,0.525-0.234,0.827c0.214,0.413,0.649,0.231,0.997,0.382c-0.272,0.27-0.654,0.415-0.779,0.795
		c0.755,0.459,1.515,0.49,1.891-0.136c0.335-0.557,0.844-0.769,1.301-1.086c-0.142-0.401-0.532-0.497-0.782-0.748
		c0.271-0.203,0.652,0.008,0.854-0.223c0.303-0.25,0.006-0.548,0.183-0.805c-0.166-0.115-0.326-0.226-0.536-0.372
		c0.117-0.298,0.205-0.638-0.064-1.005c0.693-0.041,0.809-0.808,1.328-0.933c0.143-0.447,0.261-0.819,0.38-1.191
		c0.444-0.165,0.881-0.327,1.299-0.482c0.048-0.438-0.286-0.329-0.463-0.392c-0.171-0.173,0.081-0.396-0.133-0.571
		c0.272-0.422,0.954-0.563,0.832-1.281c-0.082-0.484,0.453-0.862,0.305-1.488c0.793,0.792,0.819,1.963,1.791,2.38
		c0.107,0.325-0.218,0.554-0.069,0.833c0.199,0.398,0.634,0.45,0.994,0.682c0.074,0.246-0.144,0.554,0.069,0.817
		c-0.308,0.146-0.756,0.077-0.825,0.625c0.492,0.234,1.008,0.48,1.524,0.727c0.15,0.262,0.126,0.629,0.477,0.753
		c-0.079,0.423-0.157,0.836-0.24,1.279c0.174,0.39,0.579,0.289,0.943,0.321c-0.167,0.389,0.194,0.556,0.283,0.836
		c-0.182,0.197-0.698,0.042-0.581,0.616c0.112,0.267,0.453,0.317,0.829,0.554c0.135,0.096-0.222,0.272-0.032,0.57
		c0.212,0.183,0.532,0.456,0.917,0.786c0.194-0.506,0.612-0.729,1.01-0.936c-0.086-0.666,0.798-1.199,0.041-1.943
		c0.63-0.182,0.39-1.11,1.203-1.033c-0.125-0.486-0.564-0.334-0.793-0.547c0.253-0.178,0.658-0.094,0.785-0.479
		c-0.1-0.158-0.204-0.324-0.313-0.496c0.297-0.227,0.744,0.026,0.918-0.246c0.359-0.491,0.121-0.729-0.225-0.949
		c0.346-0.305,0.417-0.748,0.488-0.982c0.358-0.441,0.859-0.223,1.089-0.749c-0.21-0.626,0.312-1.377-0.125-2.12
		c0.822-0.104,0.822-0.104,1.344-0.494c-0.066-0.388-0.448-0.393-0.692-0.563c-0.146-0.157-0.146-0.313,0.003-0.466
		c0.494-0.171,0.845-0.631,1.372-0.601c0.172-0.639-0.422-0.799-0.561-1.201c0.241-0.196,0.515-0.372,0.399-0.758
		c0.319,0.05,0.521,0.255,0.864,0.017c-0.274-0.308-0.058-0.768-0.354-1.192c0.494-0.345,0.425-0.926,0.502-1.519
		c0.621,0.409,0.525,1.289,1.292,1.473c-0.135,0.321-0.252,0.603-0.384,0.918c0.264,0.439,0.511,0.907,1.112,1.052
		c-0.119,0.163-0.211,0.291-0.364,0.502c0.54,0.247,0.598,0.992,1.306,1.146c-0.389,0.6,0.239,0.799,0.498,1.246
		c-0.318,0.317-0.567,0.714-0.313,1.261c0.123,0.319,0.647,0.252,0.762,0.648c-0.142,0.203-0.485,0.021-0.61,0.392
		c0.283,0.522,1.115,0.583,1.251,1.292c-0.098,0.193-0.221,0.438-0.3,0.593c0.259,0.612,0.757,0.396,1.094,0.566
		c-0.186,0.338,0.139,0.498,0.326,0.794c-0.534,0.107-1.057,0.118-1.456,0.597c0.721,0.6,1.604,0.824,2.332,1.363
		c-0.391,0.025-0.782,0.05-1.149,0.074c-0.212,0.234-0.39,0.443-0.391,0.774c0.469,0.292,1.01,0.371,1.585,0.434
		c0.235,0.35,0.47,0.699,0.727,1.082c-0.396,0.162-0.754,0.31-1.173,0.481c0.266,0.463,0.847,0.284,1.106,0.684
		c-0.152,0.411,0.178,0.558,0.563,0.661c-0.247,0.232-0.561,0.279-0.67,0.614c0.063,0.526,0.57,0.619,0.952,0.712
		c0.416,0.101,0.863,0.245,1.271,0.239c1.083-0.016,2.143,0.187,3.193,0.33c1.293,0.177,2.617,0.024,3.886,0.401
		c0.187,0.055,0.397,0.031,0.597,0.031c2.026-0.002,4.019,0.402,6.035,0.536c0.699,0.047,1.408,0.187,2.122,0.197
		c0.195,0.003,0.401,0.037,0.578-0.126c0.118-0.483-0.495-0.575-0.547-0.984c0.384-0.24,0.862,0.068,1.238-0.198
		c0.135-0.231-0.03-0.37-0.154-0.516c-0.127-0.15-0.262-0.294-0.426-0.476c0.58-0.075,0.817-0.627,1.306-0.709
		c0.214-0.301-0.001-0.65,0.161-0.942c0.234-0.26,0.672-0.245,0.839-0.597c-0.056-0.333-0.481-0.289-0.563-0.589
		c0.056-0.444,0.332-0.661,0.768-0.706c-0.215-0.516,0.354-0.633,0.469-0.931c0.124-0.202,0.056-0.343-0.073-0.515
		c0.231-0.387,0.481-0.765,0.847-1.057c0.053-0.264-0.262-0.259-0.323-0.446c0.427-0.229,0.774-0.55,1.068-0.993
		c-0.039-0.122-0.086-0.269-0.139-0.435c0.091-0.268,0.407-0.323,0.644-0.539c-0.421-0.538,0.069-1.038,0.038-1.597
		c0.204-0.089,0.414-0.181,0.679-0.297c-0.279-1.044,0.929-1.6,0.789-2.621c0.413,0.921,0.927,1.719,1.816,2.393
		c-0.449,0.197-0.451,0.634-0.605,0.99c0.093,0.364,0.398,0.57,0.62,0.84c-0.067,0.154-0.129,0.296-0.196,0.451
		c0.438,0.604,0.273,1.376,0.552,2.093c0.166,0.092,0.371,0.204,0.553,0.304c0.318-0.059,0.556-0.188,0.747-0.39
		c0.125-0.392,0.048-0.702-0.349-0.899c0.293-0.219,0.635-0.366,0.691-0.484c0.217-0.416,0.183-0.605,0.043-0.891
		c0.387-0.307,0.596-0.732,0.215-1.225c0.516-0.373,0.701-0.875,0.732-1.476c0.292,0.764,0.717,1.467,0.623,2.317
		c0.362,0.431,0.788,0.809,0.941,1.385c-0.056,0.168-0.117,0.351-0.179,0.533c0.281,0.294,0.771,0.412,0.852,0.812
		c0.083,0.413,0.295,0.718,0.586,1.033c-0.253,0.421-0.679,0.767-0.439,1.327c0.229,0.185,0.479,0.376,0.835,0.374
		c0.332-0.065,0.53-0.313,0.725-0.579c0.063-0.382-0.299-0.625-0.332-0.98c0.533-0.302,0.469-0.742,0.212-1.208
		c0.463-0.155,0.87-0.292,1.275-0.428c-0.072-0.268-0.29-0.371-0.529-0.438c0.313-0.398,0.595-0.756,0.82-1.043
		c0.077-0.307-0.018-0.484-0.127-0.703c0.563-0.196,0.688-0.939,1.44-1.057c0.188,0.562,0.94,0.709,1.097,1.398
		c-0.056,0.167-0.117,0.349-0.183,0.544c0.129,0.104,0.25,0.201,0.37,0.298c0.203,0.215-0.221,0.438,0.006,0.646
		c0.189,0.173,0.271,0.365,0.16,0.637c0.184,0.139,0.371,0.28,0.559,0.421c-0.101,0.217-0.201,0.434-0.308,0.663
		c0.028,0.345,0.414,0.449,0.54,0.749c-0.129,0.299-0.206,0.597,0.229,0.8c0.313,0.059,0.537-0.183,0.782-0.352
		c0.087-0.335-0.002-0.564-0.392-0.616c0.23-0.249,0.56-0.3,0.631-0.658c0.022-0.237-0.283-0.337-0.345-0.615
		c0.478-0.188,1.145-0.287,0.727-1.126c0.354-0.33,0.625-0.735,0.723-1.264c0.125,0.548,0.608,0.881,0.737,1.444
		c-0.052,0.048-0.134,0.124-0.269,0.25c0.541,0.637,0.552,1.574,1.134,2.176c0.403,0.175,0.671,0.074,0.871-0.235
		c0.176-0.266-0.192-0.425-0.125-0.678c0.533-0.452,1.365-0.319,1.814-0.852c0.123-0.363-0.108-0.48-0.332-0.641
		c0.117-0.192,0.233-0.383,0.356-0.587c-0.056-0.177-0.115-0.361-0.17-0.534c0.178-0.337,0.526-0.121,0.671-0.217
		c0.425-0.266,0.035-0.798,0.479-0.97c0.138-0.128,0.214-0.387,0.485-0.228c0,0.252,0.559,0.202,0.305,0.633
		c-0.136,0.23,0.159,0.427,0.327,0.577c0.269,0.24,0.572,0.441,0.889,0.68c-0.347,0.271-0.526,0.41-0.699,0.545
		c0.227,0.798,1.047,0.979,1.473,1.541c-0.121,0.145-0.379,0.175-0.36,0.435c-0.048,0.467,0.585,0.397,0.544,0.822
		c0.39,0.031,0.698,0.055,1.001,0.079c0.045,0.303-0.28,0.551,0.092,0.893c0.249,0.167,0.677-0.063,1.05,0.088
		c0.183,0.173-0.172,0.359,0.16,0.608c0.356-0.014,0.811-0.366,1.579,0.016c-0.354-0.671,0.015-1.167-0.687-1.536
		c1.009-0.194,1.334-0.983,1.84-1.499c0.576,0.167,0.761,0.789,1.3,0.782c0.146,0.369-0.08,0.561-0.217,0.803
		c-0.505,0.887-0.897,1.813-0.862,2.978c-0.281,0.269-0.573,0.708-1.057,0.941c-0.492,0.278-1.001,0.477-1.584,0.48
		c-1.993,0.015-3.982,0.087-5.976,0.192c-3.783,0.2-7.545,0.585-11.312,0.952c-3.093,0.302-6.187,0.573-9.514,1.162
		c2.198,0.549,4.19,0.74,6.167,0.957c4.281,0.47,8.524,1.169,12.769,1.872c0.825,0.137,1.668,0.2,2.477,0.408
		c0.503,0.129,1.161,0.138,1.288,0.87c-0.435,1.8-0.806,3.611-1.005,5.456c-0.072,0.666-0.239,1.317-0.267,1.997
		c-0.015,0.379-0.282,0.728-0.583,1.013c-0.551,0.523-1.066,1.083-1.622,1.601c-0.621,0.577-0.964,1.242-0.882,2.116
		c0.045,0.476-0.022,0.961,0.016,1.438c0.061,0.773-0.214,1.369-0.749,1.927c-1.765,1.837-3.311,3.871-5.135,5.66
		c-0.61,0.599-1.007,1.415-1.535,2.183c0.523,0.646,0.885,1.334,0.601,2.283c-1.102,0.961-1.996,2.242-3.085,3.354
		c-1.457,1.487-3.184,2.623-4.865,3.814c-0.563,0.399-1.028,0.877-1.51,1.349c-0.529,0.518-0.574,1.198-0.536,1.895
		c-0.558,0.816-1.424,1.271-2.159,1.862c-0.666,0.538-1.136,1.121-1.479,1.939c-0.923,2.196-2.098,4.272-3.464,6.231
		c-0.223,0.318-0.538,0.561-0.905,0.759c-2.315,1.246-4.486,2.677-6.363,4.564c-0.835,0.839-1.773,1.594-2.622,2.435
		c-1.104,1.092-2.09,2.285-3.053,3.502c-0.396,0.5-0.868,0.927-1.463,1.207c-1.445,0.68-2.972,1.271-4.548,1.175
		c-1.987-0.121-3.941-0.438-5.76-1.54c-2.437-1.478-4.868-2.994-7.484-4.16c-0.399-0.178-0.792-0.362-1.102-0.695
		c-1.688-1.814-3.676-3.276-5.688-4.692c-1.086-0.765-2.019-1.617-2.743-2.737c-0.467-0.723-1.055-1.372-1.813-1.816
		c0.157-1.164-0.304-2.193-0.235-3.184c-0.496-1.215-1.38-1.972-2.47-2.402c-1.666-0.66-2.878-1.817-3.859-3.242
		c-0.367-0.534-0.834-0.96-1.244-1.474c-0.343-0.787-0.396-1.663-0.568-2.51c-0.178-0.872-0.428-1.691-1.14-2.293
		c-0.43-0.362-0.732-0.829-1.063-1.277c-0.283-0.383-0.646-0.701-1.108-0.939c-0.266-1.602-0.705-3.179-1.761-4.453
		c-1.037-1.251-2.109-2.482-3.537-3.354c-0.921-0.563-1.643-1.277-1.77-2.52c-0.094-0.917-0.41-1.839-0.875-2.688
		c-0.686-1.253-1.19-2.605-1.978-3.803c-1.048-1.593-2.123-3.171-3.78-4.221c-0.014-0.244-0.06-0.445-0.031-0.635
		c0.188-1.275-0.415-2.227-1.25-3.078c-1.092-1.112-2.203-2.207-3.292-3.322c-0.429-0.439-0.898-0.782-1.517-0.883
		c-0.634-0.675-1.083-1.415-1.202-2.38c-0.06-0.483-0.421-0.93-0.641-1.382c0.228-0.479,0.242-1.022,0.646-1.471
		c0.646,0.234,0.659,0.89,0.848,1.338c0.241,0.333,0.571,0.388,0.879,0.554c0.692-0.386,1.65-0.27,2.13-1.08
		c0.078-0.271-0.268-0.421-0.137-0.707c0.432-0.23,0.883-0.472,1.278-0.684c0.235-0.487-0.172-0.699-0.328-1.012
		c0.647-0.189,1.265-0.364,1.591-0.999c0.022-0.408-0.393-0.447-0.59-0.682c0.309-0.077,0.618-0.144,0.748-0.482
		c0.278,0.139,0.535,0.165,0.78-0.246c-0.196-0.409-0.046-0.924,0.002-1.523c0.095-0.096,0.405,0.053,0.657-0.322
		c0.05-0.193-0.161-0.604,0.126-0.919c0.242-0.265,0.083-0.58,0.11-0.872c0.083-0.896,0.274-1.782,0.713-2.59
		c0.351,0.692,0.701,1.393,0.834,2.16c0.072,0.416,0.355,0.574,0.641,0.719c-0.049,0.169-0.083,0.281-0.106,0.364
		c0.06,0.352,0.43,0.16,0.553,0.369c-0.106,0.113-0.211,0.224-0.36,0.382c0.455,0.275,0.431,0.995,1.104,1.03
		c-0.045,0.161-0.087,0.309-0.131,0.465c0.131,0.104,0.253,0.2,0.375,0.297c-0.125,0.195-0.25,0.392-0.354,0.555
		c0.07,0.387,0.429,0.203,0.581,0.38c0.233,0.253-0.146,0.424-0.079,0.684c0.206,0.433,0.563,0.701,1.066,0.779
		c0.29-1.416,0.171-2.867,0.382-4.26c0.275-1.816,0.105-3.636,0.356-5.452c0.243-1.761,0.052-3.581,0.052-5.435
		c-0.708-0.169-1.355-0.172-1.987,0.155c-1.826-0.656-3.651-0.683-5.49-0.122c-0.936,0.285-1.72,0.053-2.27-0.657
		c-0.178-0.405,0.031-0.619,0.181-0.85c0.263-0.739,1.215-0.32,1.598-0.983c-0.227-0.78-0.728-1.371-1.523-1.646
		C30.166,126.246,29.463,125.689,28.813,125.038z"/>
	<path fill-rule="evenodd" clip-rule="evenodd" fill="#FFFFFF" d="M70.549,120.287c-0.182-0.128-0.295-0.323-0.181-0.511
		c0.568-0.935,0.345-1.832-0.067-2.736c-0.046-0.101-0.021-0.233-0.033-0.428c0.795-0.72,1.435-1.624,2.095-2.458
		c0.195-0.716-0.349-1.127-0.6-1.587c0.271-0.552,0.811-0.391,1.208-0.62c0.608-0.487,0.774-1.235,0.984-1.962
		c1.159-0.319,2.221-0.869,3.292-1.394c1.789-0.875,3.567-1.774,5.345-2.672c1.086-0.549,2.209-0.843,3.449-0.786
		c1.15,0.054,2.3,0.022,3.454-0.202c0.809-0.157,1.685-0.114,2.508,0.001c0.809,0.113,1.575,0.005,2.319-0.086
		c2.471-1.474,4.604-3.388,7.293-4.765c0.506,0,1.182,0,1.873,0c1.507-0.923,2.88-2.011,4.271-3.128c0.691,0,1.407,0,2.203,0
		c1.217,1.153,2.752,1.98,3.858,3.322c0.05,0.062,0.1,0.137,0.167,0.171c1.578,0.797,1.842,2.461,2.515,3.83
		c0.098,0.035,0.174,0.091,0.244,0.084c1.52-0.156,2.663,0.465,3.701,1.556c1.521,1.598,3.344,2.816,5.291,3.864
		c1.796,0.967,3.518,2.058,4.659,3.41c3.119,1.49,5.774,3.126,7.977,5.438c0.468,0.491,0.968,0.958,1.495,1.385
		c0.901,0.729,1.689,1.56,2.496,2.392c1.429,1.475,2.716,3.128,4.548,4.177c0.336,0.191,0.728,0.376,0.742,0.862
		c-0.151,0.23-0.304,0.46-0.519,0.787c-1.486-0.444-2.947-1.146-4.551-1.058c-0.199-0.116-0.392-0.192-0.54-0.32
		c-2.794-2.39-6.262-3.636-9.347-5.53c-1.077-0.661-2.317-0.7-3.537-1.025c1.074,1.106,0.828,2.632,1.417,3.837
		c-0.188,0.221-0.399,0.212-0.585,0.162c-2.284-0.618-4.459-1.476-6.389-2.888c-0.561-0.41-1.004-0.906-1.377-1.479
		c-0.588-0.903-1.181-1.803-1.765-2.708c-0.551-0.854-1.262-1.517-2.143-2.045c-1.418-0.851-1.779-1.314-2.404-2.711
		c-0.348-0.251-0.781-0.06-1.151-0.208c-0.342-0.137-0.569-0.413-0.771-0.735c-0.624,0.208-0.894,0.902-1.498,0.854
		c-0.231,0.344-0.137,0.704-0.444,0.955c0.989,0.657,0.637,1.939,1.456,2.578c0.085,0.876,0.036,1.746,0.708,2.378
		c-0.005,0.493,0.176,0.961-0.021,1.476c-1.257-0.224-1.889-1.409-3.064-1.882c0.405,1.384,0.818,2.655,1.607,3.687
		c0.114,0.569,0.067,1.028-0.288,1.447c-0.655-0.314-1.292-0.618-1.691-1.265c-0.259-0.418-0.692-0.653-1.085-0.928
		c-0.591-0.412-1.133-0.871-1.601-1.433c-0.782-0.938-0.96-1.993-0.716-3.144c0.093-0.434,0.183-0.857,0.092-1.397
		c-0.371-0.461-0.787-0.995-1.223-1.513c-0.467-0.556-0.601-1.219-0.563-1.9c0.043-0.753,0.225-1.498,0.273-2.252
		c0.05-0.768,0.012-1.542,0.012-2.363c-0.589,0.032-0.953,0.376-1.307,0.659c-1.253,1.002-2.693,1.712-3.996,2.635
		c-0.129,0.091-0.273,0.177-0.424,0.219c-1.473,0.405-2.323,1.456-2.953,2.767c-0.414,0.861-0.876,1.701-1.333,2.541
		c-0.36,0.662-0.835,1.276-0.707,2.113c-2.034,1.674-3.644,3.726-5.721,5.271c-0.401-0.449-0.215-0.725-0.034-0.986
		c0.52-0.756,1.046-1.507,1.572-2.257c0.526-0.749,1.056-1.496,1.604-2.272c-0.508-0.34-0.871,0.194-1.284,0.075
		c-0.331-0.104-0.524-0.34-0.664-0.795c0.415-1.006,1.227-1.962,1.515-3.396c-2.29,1.079-3.941,2.905-6.263,3.645
		c-0.119-0.578,0.273-0.8,0.54-1.048c0.629-0.587,1.197-1.187,1.126-2.137c-0.027-0.376,0.371-0.583,0.446-0.929
		c-0.337-0.188-0.487,0.07-0.639,0.201c-1.34,1.154-2.855,2.037-4.399,2.878c-0.904,0.493-1.896,0.876-2.3,1.976
		c-0.485-0.034-0.917-0.294-1.33-0.117c-0.398,0.17-0.758,0.431-1.234,0.711c-0.813-0.324-1.787-0.138-2.721-0.379
		c-0.792,0.27-1.49,0.74-2.223,1.143C72.38,119.798,71.545,120.27,70.549,120.287z"/>
	<path fill-rule="evenodd" clip-rule="evenodd" fill="#FFFFFF" d="M131.31,155.242c-1.522-0.496-3.116-0.612-4.68-0.883
		c-1.688-0.293-3.377-0.569-5.071-0.815c-2.168-0.315-4.343-0.59-6.513-0.891c-2.329-0.323-4.658-0.649-6.985-0.992
		c-0.347-0.052-0.679-0.205-1.039-0.318c0.061-0.535,0.521-0.519,0.805-0.577c1.639-0.341,3.288-0.623,4.955-0.793
		c2.696-0.276,5.387-0.623,8.087-0.854c2.86-0.245,5.721-0.495,8.59-0.643c2.513-0.129,5.021-0.231,7.536-0.128
		c-1.22,1.416-2.423,2.847-3.666,4.242C132.585,153.424,131.934,154.321,131.31,155.242z"/>
	<path fill-rule="evenodd" clip-rule="evenodd" fill="#FFFFFE" d="M28.813,125.038c0.357,0.021,0.714,0.043,1.046,0.063
		c0.309,0.206,0.214,0.636,0.642,0.85c0.933-0.033,1.732,0.39,2.154,1.384c0.152,0.359,0.593,0.405,0.758,0.783
		c-0.033,0.771-0.646,0.889-1.239,0.987c-0.39,0.064-0.792,0.056-1.189,0.08c-0.52-0.069-1.027-0.053-1.538,0.103
		c-0.259,0.079-0.573,0.134-0.823,0.063c-1.084-0.308-2.126,0.034-3.183,0.143c-1.861,0.191-3.719,0.416-5.582,0.591
		c-0.631,0.06-1.267,0.079-1.884,0.208c-0.138-0.266-0.606-0.396-0.225-0.772c1.472-0.562,2.951-1.107,4.412-1.696
		c0.321-0.129,0.605-0.383,0.867-0.623c0.752-0.688,1.659-1.003,2.622-1.29C26.7,125.599,27.773,125.378,28.813,125.038z"/>
	<path fill-rule="evenodd" clip-rule="evenodd" fill="#74673A" d="M73.927,134.89c-0.001,0.155-0.002,0.311-0.003,0.466
		c-0.29,0.021-0.522-0.061-0.631-0.362C73.479,134.803,73.713,134.903,73.927,134.89z"/>
	<path fill-rule="evenodd" clip-rule="evenodd" fill="#7F673A" d="M130.318,138.963c-0.162,0.076-0.323,0.151-0.485,0.228
		c0.03-0.216-0.056-0.457,0.143-0.64C130.341,138.479,130.298,138.747,130.318,138.963z"/>
	<path fill-rule="evenodd" clip-rule="evenodd" fill="#FFFFFE" d="M75.124,55.577c0-2.071,0-4.142,0-6.224
		c0.429-0.281,0.878-0.117,1.299-0.146c0.429-0.03,0.862-0.007,1.341-0.007c0,3.452,0,6.792,0,10.262
		c-1.149,0.053-2.293,0.02-3.542,0.021c-1.208-2.187-2.43-4.397-3.778-6.836c-0.2,2.421,0.064,4.546,0.108,6.717
		c-0.923,0.244-1.792,0.08-2.645,0.113c-0.249-0.843-0.329-7.763-0.118-10.208c1.206-0.145,2.427-0.049,3.717-0.051
		c1.146,2.134,2.29,4.263,3.433,6.393C75.001,55.6,75.063,55.588,75.124,55.577z"/>
	<path fill-rule="evenodd" clip-rule="evenodd" fill="#FFFFFE" d="M124.767,49.2c1.176,2.197,2.316,4.328,3.456,6.459
		c0.059-0.017,0.117-0.035,0.176-0.052c0-2.094,0-4.187,0-6.343c0.896,0,1.713,0,2.598,0c0,3.387,0,6.755,0,10.174
		c-1.165,0-2.273,0-3.535,0c-1.181-2.134-2.405-4.349-3.63-6.564c-0.058,0.014-0.116,0.027-0.174,0.042
		c0,1.08,0.01,2.159-0.003,3.239c-0.014,1.068,0.012,2.133,0.195,3.267c-0.983,0-1.844,0-2.841,0
		c-0.038-1.662-0.013-3.326-0.018-4.989c-0.004-1.678-0.001-3.356-0.001-5.074c0.614-0.296,1.257-0.123,1.875-0.152
		C123.462,49.178,124.061,49.2,124.767,49.2z"/>
	<path fill-rule="evenodd" clip-rule="evenodd" fill="#FFFFFF" d="M113.056,59.594c-0.924,0.003-1.829-0.067-2.687-0.466
		c-1.225-0.57-2.094-1.443-2.419-2.783c-0.403-1.662-0.468-3.308,0.336-4.886c0.352-0.69,0.851-1.256,1.549-1.615
		c2.08-1.07,4.198-1.072,6.32-0.152c0.788,0.342,1.416,0.921,1.792,1.698c0.966,1.993,0.954,4.024-0.065,5.97
		c-0.689,1.316-1.925,1.979-3.392,2.164C114.017,59.583,113.535,59.572,113.056,59.594z"/>
	<path fill-rule="evenodd" clip-rule="evenodd" fill="#FFFFFF" d="M114.291,71.595c0,1.273,0,2.462,0,3.7
		c-0.952,0.251-1.863,0.046-2.751,0.134c-0.224-0.878-0.284-8.21-0.081-10.172c0.526,0,1.071,0,1.617,0
		c1.239,0,2.478-0.004,3.717,0.002c0.518,0.003,1.021,0.053,1.529,0.216c1.037,0.334,1.774,0.925,1.904,2.055
		c0.132,1.154-0.359,2.275-1.497,2.724c-0.109,0.043-0.214,0.101-0.325,0.154c0.759,0.806,1.695,2.909,2.204,4.959
		c-0.958,0-1.904,0-2.903,0c-0.444-0.549-0.521-1.287-0.779-1.941c-0.266-0.67-0.484-1.349-1.072-1.801
		C115.362,71.463,114.898,71.439,114.291,71.595z"/>
	<path fill-rule="evenodd" clip-rule="evenodd" fill="#FFFFFF" d="M103.848,86.441c1.184,1.415,1.416,3.241,2.261,4.888
		c-1.033,0.27-2.01,0.05-2.995,0.156c-0.522-0.86-0.632-1.833-1.028-2.692c-0.503-1.088-0.9-1.343-2.255-1.296
		c0,1.281,0,2.574,0,3.902c-1.038,0-1.935,0-2.876,0c0-3.362,0-6.659,0-9.915c0.286-0.266,0.58-0.175,0.847-0.177
		c1.479-0.009,2.958-0.016,4.437,0.003c0.554,0.007,1.104,0.019,1.644,0.246c0.956,0.401,1.645,1.003,1.708,2.091
		c0.065,1.116-0.29,2.042-1.369,2.567C104.078,86.284,103.949,86.379,103.848,86.441z"/>
	<path fill-rule="evenodd" clip-rule="evenodd" fill="#FFFFFE" d="M145.019,59.444c-1.189,0-2.178,0-3.153,0
		c-0.477-0.611-0.538-1.358-0.914-2.053c-1.305-0.129-2.646-0.051-3.97-0.04c-0.486,0.654-0.521,1.469-1.033,2.085
		c-0.884,0-1.788,0-2.858,0c1.275-3.477,2.755-6.757,4.06-10.171c1.186,0,2.369,0,3.664,0
		C142.183,52.581,143.575,55.949,145.019,59.444z"/>
	<path fill-rule="evenodd" clip-rule="evenodd" fill="#FFFFFF" d="M122.887,65.299c0.956,0,1.827,0,2.845,0
		c0.069,1.274-0.002,2.578,0.045,4.05c1.13-1.41,2.157-2.693,3.233-4.035c1.096-0.113,2.24-0.059,3.605-0.021
		c-1.382,1.634-2.653,3.138-3.993,4.722c1.378,1.721,2.757,3.444,4.193,5.239c-0.673,0.275-1.266,0.136-1.839,0.159
		c-0.596,0.024-1.192,0.005-1.831,0.005c-1.073-1.438-2.139-2.865-3.375-4.52c0,1.644,0,3.038,0,4.462c-1.027,0-1.924,0-2.884,0
		C122.887,72.008,122.887,68.713,122.887,65.299z"/>
	<path fill-rule="evenodd" clip-rule="evenodd" fill="#FFFFFE" d="M83.677,57.387c-0.458,0.634-0.482,1.454-0.991,2.046
		c-0.908,0-1.812,0-2.877,0c1.347-3.454,2.723-6.776,4.096-10.146c1.207-0.177,2.389-0.048,3.624-0.087
		c1.404,3.407,2.792,6.771,4.212,10.216c-1.142,0.113-2.16,0.104-3.217,0.014c-0.275-0.683-0.539-1.339-0.821-2.042
		C86.392,57.387,85.085,57.387,83.677,57.387z"/>
	<path fill-rule="evenodd" clip-rule="evenodd" fill="#FFFFFF" d="M109.548,75.371c-1.204,0-2.187,0-3.155,0
		c-0.525-0.584-0.515-1.373-0.999-2.054c-1.229-0.142-2.532-0.02-3.8-0.058c-0.599,0.616-0.571,1.468-1.11,2.098
		c-0.896,0.128-1.829,0.032-2.968,0.065c1.425-3.483,2.771-6.773,4.136-10.106c1.201,0,2.385,0,3.704,0
		C106.716,68.579,108.101,71.899,109.548,75.371z"/>
	<path fill-rule="evenodd" clip-rule="evenodd" fill="#FFFFFE" d="M137.514,91.398c0-3.355,0-6.651,0-10.021
		c2.541,0,5.038,0,7.585,0c0.188,0.553,0.086,1.14,0.069,1.837c-1.565,0-3.102,0-4.654,0c-0.206,0.685-0.06,1.273-0.132,1.926
		c1.514,0.216,2.979-0.005,4.489,0.137c0.091,0.67,0.072,1.29,0.014,1.996c-1.461,0-2.885,0-4.319,0
		c-0.309,0.763-0.091,1.458-0.181,2.244c1.66,0,3.202,0,4.807,0c0,0.667,0,1.24,0,1.881
		C142.63,91.398,140.098,91.398,137.514,91.398z"/>
	<path fill-rule="evenodd" clip-rule="evenodd" fill="#FFFFFE" d="M89.53,83.278c0,0.665,0,1.215,0,1.82
		c0.673,0.28,1.394,0.095,2.093,0.126c0.71,0.032,1.424,0.007,2.187,0.007c0.137,0.713,0.108,1.333,0.026,2.051
		c-1.401,0-2.786,0-4.189,0c-0.278,0.736-0.109,1.409-0.151,2.199c1.6,0,3.177,0,4.816,0c0,0.701,0,1.274,0,1.916
		c-2.562,0-5.095,0-7.676,0c0-3.359,0-6.657,0-10.025c2.545,0,5.038,0,7.568,0c0.162,0.582,0.043,1.137,0.109,1.829
		C92.729,83.315,91.186,83.196,89.53,83.278z"/>
	<path fill-rule="evenodd" clip-rule="evenodd" fill="#FFFFFF" d="M107.376,81.349c1.185,0,2.131,0,3.144,0
		c0.781,2.549,1.559,5.086,2.397,7.823c0.841-2.729,1.62-5.261,2.408-7.821c0.996,0,1.938,0,3.035,0
		c-1.236,3.397-2.438,6.702-3.657,10.051c-1.219,0-2.406,0-3.722,0C109.812,88.14,108.623,84.823,107.376,81.349z"/>
	<path fill-rule="evenodd" clip-rule="evenodd" fill="#FFFFFF" d="M89.079,65.251c2.019,0.097,3.969-0.216,5.895,0.259
		c1.643,0.404,2.438,1.34,2.482,2.908c0.046,1.656-0.68,2.65-2.308,3.189c-0.993,0.33-2.025,0.354-3.104,0.396
		c-0.248,1.104,0.027,2.224-0.173,3.357c-0.941,0-1.836,0-2.793,0C89.079,72.017,89.079,68.719,89.079,65.251z"/>
	<path fill-rule="evenodd" clip-rule="evenodd" fill="#FFFFFF" d="M76.103,91.178c-0.066-0.755,0.016-1.447,0.325-2.164
		c1.293,0.598,2.632,0.619,3.963,0.479c0.358-0.179,0.637-0.39,0.711-0.839c-0.104-0.594-0.566-0.877-1.115-1.06
		c-0.677-0.225-1.37-0.405-2.04-0.649c-0.938-0.343-1.654-0.901-1.921-1.948c-0.329-1.288,0.123-2.475,1.268-3.171
		c0.626-0.381,1.323-0.59,2.027-0.66c1.381-0.137,2.772-0.166,4.145,0.293c0.119,0.713-0.022,1.355-0.234,2.021
		c-1.475-0.17-3.01-0.975-4.24,0.349c-0.042,0.535,0.16,0.77,0.479,0.895c0.442,0.173,0.896,0.318,1.347,0.468
		c0.489,0.162,0.996,0.281,1.47,0.479c1.357,0.567,1.763,1.281,1.783,2.78c0.016,1.15-0.588,2.251-1.891,2.759
		c-1.376,0.536-2.812,0.588-4.237,0.39C77.37,91.522,76.736,91.578,76.103,91.178z"/>
	<path fill-rule="evenodd" clip-rule="evenodd" fill="#FFFFFE" d="M135.375,81.67c-0.033,0.718,0.055,1.392-0.334,2.087
		c-0.702-0.234-1.404-0.479-2.138-0.604c-1.752-0.298-3.283,0.627-3.813,2.313c-0.617,1.965,0.632,3.876,2.679,4.055
		c0.594,0.052,1.201,0.045,1.795-0.015c0.551-0.056,1.091-0.218,1.696-0.347c0.185,0.648,0.1,1.307,0.106,1.915
		c-0.418,0.544-1.009,0.403-1.484,0.478c-1.969,0.307-3.901,0.18-5.666-0.874c-1.483-0.886-2.229-2.192-2.285-3.943
		c-0.056-1.739,0.361-3.241,1.778-4.352c0.768-0.602,1.648-0.957,2.605-1.126C132.024,80.955,133.702,81.014,135.375,81.67z"/>
	<path fill-rule="evenodd" clip-rule="evenodd" fill="#FFFEFE" d="M100.027,49.27c0,0.702,0,1.326,0,2.058c-0.866,0-1.686,0-2.579,0
		c0,2.731,0,5.354,0,8.017c-0.961,0.271-1.862,0.093-2.896,0.14c-0.098-1.39-0.035-2.731-0.047-4.068
		c-0.011-1.311-0.002-2.623-0.002-4.051c-0.937,0-1.794,0-2.704,0c-0.144-0.732-0.075-1.358-0.073-1.976
		C92.583,49.148,97.514,49.075,100.027,49.27z"/>
	<path fill-rule="evenodd" clip-rule="evenodd" fill="#FFFEFE" d="M149.784,57.382c1.55,0,2.971,0,4.458,0
		c0.129,0.694,0.078,1.318,0.05,1.996c-0.782,0.219-1.575,0.083-2.354,0.106c-0.837,0.024-1.675,0.006-2.512,0.006
		c-0.794,0-1.587,0-2.365,0c-0.228-0.92-0.298-7.829-0.11-10.218c0.886,0,1.781,0,2.762,0c0.158,1.32,0.048,2.663,0.068,4
		C149.799,54.583,149.784,55.895,149.784,57.382z"/>
	<path fill-rule="evenodd" clip-rule="evenodd" fill="#FFFFFF" d="M105.013,59.434c-0.948,0-1.815,0-2.738,0
		c0-3.397,0-6.74,0-10.147c0.889-0.184,1.793-0.05,2.684-0.076C105.158,50.117,105.199,57.975,105.013,59.434z"/>
	<path fill-rule="evenodd" clip-rule="evenodd" fill="#FFFFFF" d="M123.318,91.426c-0.95,0-1.82,0-2.687,0
		c-0.22-0.846-0.268-8.538-0.058-10.062c0.887,0,1.782,0,2.744,0C123.318,84.701,123.318,88.002,123.318,91.426z"/>
	<path fill-rule="evenodd" clip-rule="evenodd" fill="#FFFFFF" d="M99.164,174.498c-0.073,0.859-0.508,1.586-0.883,2.33
		c-0.216,0.429-0.423,0.855-0.577,1.417c0.556,1.344,0.554,2.972,1.696,4.225c-0.123,1.124-0.797,2.124-0.969,3.267
		c-0.164,1.085-0.329,2.17-0.496,3.273c-0.765,0.098-1.428,0.074-2.083,0.032c-0.225-0.453-0.084-0.831,0.028-1.375
		c0.191-0.13,0.492-0.334,0.666-0.451c0.227-1.038,0.424-1.89,0.597-2.746c0.21-1.043,0.041-1.943-0.82-2.706
		c-0.981-0.868-1.968-1.522-3.351-1.952c-1.726,0.296-3.171,1.444-4.771,2.096c-0.482-0.097-0.279-0.578-0.514-0.768
		c-1.311,0.068-1.657,0.274-1.988,1.453c-0.366,1.303-0.956,2.411-2.019,3.301c-0.909,0.762-1.382,1.819-1.48,3.072
		c-0.753,0.166-1.479,0.146-2.212,0.024c-0.016-0.589,0.431-0.894,0.629-1.411c-0.315-0.912-0.55-1.938-1.015-2.846
		c-0.466-0.909-1.11-1.797-2.266-1.933c-1.586-0.188-2.973-0.854-4.322-1.645c-0.445-0.261-0.892-0.528-1.489-0.622
		c-0.874,0.397-1.667,0.944-2.155,1.884c-0.29,0.558-0.476,1.196-1.056,1.592c-0.647,0.236-1.029-0.132-1.371-0.626
		c-0.428-0.619-0.75-1.313-1.285-1.875c-0.788-0.245-1.599,0.135-2.441-0.127c-0.452-0.483-0.636-1.104-0.603-1.814
		c0.012-0.274,0.046-0.604-0.081-0.821c-0.715-1.222-0.852-2.643-1.404-3.916c-0.72-1.659-0.57-3.365-0.142-5.038
		c0.272-1.063,1.246-1.645,2.075-2.24c1.144-0.822,2.453-1.102,3.849-0.699c1.422,0.41,2.504-0.03,3.266-1.286
		c0.571-0.939,1.484-1.443,2.453-1.821c1.792-0.697,3.667-0.756,5.548-0.511c1.184,0.155,2.359,0.373,3.554,0.463
		c0.513,0.039,1.06,0.103,1.517,0.314c1.671,0.776,3.505,1.066,5.187,1.803c1.882,0.824,3.914,1.066,5.903,1.472
		c1.149,0.234,2.199,0.691,3.163,1.356c1.741,1.201,2.74,2.851,2.997,4.945c0.094,0.766-0.066,1.513-0.259,2.248
		c-0.11,0.423-0.257,0.837-0.368,1.196c-0.017,0.43,0.303,0.725,0.174,1.28c-0.216,0.425-0.345,1.115-1.094,1.525
		c-0.021-0.562-0.247-0.976-0.501-1.52c0.835-1.752,1.697-3.609,1.103-5.726c-0.553-0.003-0.27,0.416-0.306,0.647
		C99.183,173.654,99.314,174.086,99.164,174.498z"/>
	<path fill-rule="evenodd" clip-rule="evenodd" fill="#C67F49" d="M48.802,99.313c-0.609-0.537-0.729-1.152-1.07-1.607
		c0.064-0.595-0.062-1.156,0.126-1.694c0.49-0.454,1.087-0.309,1.602-0.227c1.007,0.162,2.001,0.421,2.985,0.698
		c0.794,0.223,1.295,0.72,1.658,1.536c0.427,0.958,1.03,1.847,1.498,2.9c-0.471,0.166-0.344,0.662-0.44,0.962
		c-0.354,0.261-0.738-0.023-0.995,0.329C52.504,100.925,50.948,99.493,48.802,99.313z"/>
	<path fill-rule="evenodd" clip-rule="evenodd" fill="#C57F49" d="M54.229,106.666c-0.416,0.41-0.762,0.574-1.173,0.624
		c-0.35,0.042-0.698,0.108-1.082,0.169c-0.387-0.259-0.677-0.694-1.295-0.71c-0.519-0.014-0.736-0.534-0.855-1.074
		c-0.473-0.174-1.162,0.095-1.464-0.632c0.018-0.125,0.045-0.309,0.07-0.483c-0.132-0.117-0.25-0.221-0.386-0.339
		c0.087-0.375,0.175-0.752,0.271-1.163c0.549-0.183,1.106-0.369,1.614-0.538c1.332,0.42,2.166,1.556,3.376,1.995
		C53.854,105.169,53.545,106.102,54.229,106.666z"/>
	<path fill-rule="evenodd" clip-rule="evenodd" fill="#C67F49" d="M47.356,62.854c0.412-0.24,0.737,0.274,0.951-0.153
		c0.756,0.408,0.955,1.088,1.137,1.788c0.274,1.056,0.247,2.092,0.021,3.163c-0.26,1.235-0.551,2.461-0.904,3.67
		c-0.126,0.433-0.282,0.914-0.877,1.189c-0.311-0.72-0.159-1.387,0.063-2.047c-0.081-0.275-0.207-0.536-0.228-0.804
		c-0.115-1.495-0.229-2.989-0.477-4.47C46.906,64.38,47.242,63.637,47.356,62.854z"/>
	<path fill-rule="evenodd" clip-rule="evenodd" fill="#C57F49" d="M49.592,113.511c-0.276,0.442,0.067,1.039-0.469,1.343
		c-0.309,0.009-0.33-0.274-0.452-0.465c-0.255-0.12-0.495,0.24-0.889-0.068c-0.01-0.909-0.113-1.931,0.1-2.939
		c0.207-0.982-0.022-1.98,0.156-2.977c0.402-0.125,0.63,0.244,0.952,0.316c0.376,0.128,0.62-0.387,1.018-0.201
		c0.305,0.278,0.044,0.68,0.202,1.025c0.174,0.117,0.367,0.246,0.674,0.451c-0.212,0.984-0.243,2.034-0.299,2.871
		C50.266,113.414,49.743,113.168,49.592,113.511z"/>
	<path fill-rule="evenodd" clip-rule="evenodd" fill="#C57F49" d="M54.253,92.658c-0.739,0.827-1.136,1.767-2.298,2.12
		c-1.311,0.041-3.009-0.465-3.865-1.226c-0.042-0.313,0.353-0.406,0.366-0.694c0.107-0.366-0.371-0.637-0.121-1.09
		C50.377,91.463,52.348,91.838,54.253,92.658z"/>
	<path fill-rule="evenodd" clip-rule="evenodd" fill="#FCFDFC" d="M57.747,117.729c-0.102,0.31-0.276,0.415-0.452,0.502
		c-0.163,0.08-0.343,0.124-0.542,0.193c0.274,0.154,0.541,0.267,0.548,0.654c-0.058,0.406-0.342,0.692-0.768,0.737
		c-0.871,0.092-1.63,0.523-2.455,0.756c-0.875,0.247-1.735-0.159-2.497,0.155c-0.551-0.188-0.169-0.812-0.656-0.911
		c0.267-0.617,0.763-0.831,1.236-0.99c1.5-0.508,3.017-0.966,4.533-1.425C57.093,117.279,57.49,117.297,57.747,117.729z"/>
	<path fill-rule="evenodd" clip-rule="evenodd" fill="#C57F49" d="M36.976,68.91c0.668,0,1.216,0,1.661,0
		c0.449,0.204,0.625,0.523,0.856,0.863c0.466,0.082,0.985,0.151,1.445,0.591c0.086,0.381,0.281,0.804,0.597,1.139
		c-1.068,1.258-1.804,1.307-3.029,0.251c-0.245-0.26-0.012-0.638-0.3-0.992C37.583,70.43,36.98,69.942,36.976,68.91z"/>
	<path fill-rule="evenodd" clip-rule="evenodd" fill="#C57F49" d="M47.423,82.059c-0.291-1.41-0.164-4.643,0.246-6.188
		c0.477,0.107,0.712,0.416,0.818,0.867c0.274,1.167,0.371,2.331,0.07,3.514c-0.096,0.376-0.084,0.78-0.123,1.189
		C48.07,81.555,48.03,82.142,47.423,82.059z"/>
	<path fill-rule="evenodd" clip-rule="evenodd" fill="#C37F49" d="M38.889,105.253c0-0.364,0-0.602,0-0.864
		c0.354-0.298,0.714-0.601,1.102-0.927c0.7,0.138,1.204,0.761,1.904,0.736c0.306,0.636-0.177,1.047-0.19,1.589
		C40.684,105.991,39.829,105.603,38.889,105.253z"/>
	<path fill-rule="evenodd" clip-rule="evenodd" fill="#C27F49" d="M36.413,78.581c0.902-0.097,1.367-0.771,2.086-0.794
		c0.675-0.022,1.352-0.005,2.067-0.005c0.314,0.116,0.581,0.326,0.689,0.751c-0.368,0.633-1.008,0.713-1.637,0.66
		C38.604,79.105,37.482,79.561,36.413,78.581z"/>
	<path fill-rule="evenodd" clip-rule="evenodd" fill="#C47F49" d="M42.262,117.85c-0.261,0.384-0.481,0.706-0.687,1.008
		c-0.234,0.201-0.554,0.168-0.735,0.466c-0.28-0.157-0.511-0.286-0.731-0.409c-0.088-1.058-0.063-2.021,0.771-2.703
		c0.33-0.112,0.603-0.07,0.872-0.025C42.327,116.6,42.255,117.208,42.262,117.85z"/>
	<path fill-rule="evenodd" clip-rule="evenodd" fill="#C57F49" d="M47.096,51.693c-0.299-0.421-0.656-0.543-1.047-0.72
		c0.333-0.805,0.235-1.638,0.283-2.47c0.189-0.4,0.419-0.755,0.935-0.741c0.376,0.115,0.495,0.385,0.492,0.731
		C47.752,49.539,47.928,50.62,47.096,51.693z"/>
	<path fill-rule="evenodd" clip-rule="evenodd" fill="#BF7E49" d="M43.967,51.821c-0.498,0.461,0.395,1.248-0.463,1.646
		c-0.729-0.085-1.082-0.561-1.278-1.296c0.354-0.401,0.056-1.129,0.7-1.545C43.232,50.978,43.535,51.325,43.967,51.821z"/>
	<path fill-rule="evenodd" clip-rule="evenodd" fill="#C27F49" d="M33.663,80.264c0.765-0.109,2.111,0.039,2.987,0.313
		c0.057,0.181-0.031,0.345-0.173,0.388c-0.811,0.247-1.613,0.596-2.527,0.32C33.807,81.002,33.553,80.735,33.663,80.264z"/>
	<path fill-rule="evenodd" clip-rule="evenodd" fill="#C17F49" d="M54.071,72.929c-0.43,0.09-0.814,0.055-1.193-0.041
		c0.07-0.994,1.019-1.723,2.293-1.754C55.113,71.955,54.662,72.495,54.071,72.929z"/>
	<path fill-rule="evenodd" clip-rule="evenodd" fill="#C37F49" d="M31.448,101.541c-0.348-0.18-0.513-0.378-0.46-0.805
		c0.777-0.289,1.446-0.862,2.181-1.443c0.329,0.457,0.184,0.881,0.185,1.262C32.829,101.118,32.187,101.373,31.448,101.541z"/>
	<path fill-rule="evenodd" clip-rule="evenodd" fill="#BD7E49" d="M44.12,55.14c-0.197,0.92-0.197,0.92-1.114,1.24
		c-0.711-0.909-0.731-1.331-0.044-2.169C43.274,54.617,43.894,54.601,44.12,55.14z"/>
	<path fill-rule="evenodd" clip-rule="evenodd" fill="#C07E49" d="M50.608,82.404c0.526-0.901,1.318-0.724,1.955-1.022
		c0.307,0.189,0.738,0.153,1.02,0.413c0.163,0.313-0.083,0.463-0.214,0.728C52.513,82.588,51.627,82.674,50.608,82.404z"/>
	<path fill-rule="evenodd" clip-rule="evenodd" fill="#C37F49" d="M53.729,69.793c-0.453,0.06-0.804,0.169-1.186-0.131
		c0.485-0.792,1.059-1.409,2.134-1.487C54.833,69.055,54.074,69.275,53.729,69.793z"/>
	<path fill-rule="evenodd" clip-rule="evenodd" fill="#B57C48" d="M42.035,58.088c-0.359,0.365-0.104,0.854-0.439,1.151
		c-0.699-0.966-0.737-1.703-0.104-2.109C41.905,57.291,41.727,57.768,42.035,58.088z"/>
	<path fill-rule="evenodd" clip-rule="evenodd" fill="#BF7E49" d="M52.332,65.777c-0.121,0.44-0.15,0.966-0.884,0.92
		c-0.179-0.719,0.246-1.181,0.634-1.656C52.672,65.114,52.401,65.48,52.332,65.777z"/>
	<path fill-rule="evenodd" clip-rule="evenodd" fill="#BC7E49" d="M48.571,85.256c-0.388-0.199-0.536-0.317-0.561-0.602
		c0.395-0.521,0.991-0.544,1.765-0.753C49.429,84.672,48.82,84.772,48.571,85.256z"/>
	<path fill-rule="evenodd" clip-rule="evenodd" fill="#879A7F" d="M99.164,174.498c-0.066-0.765,0.074-1.522-0.086-2.316
		c0.364,0.066,0.51,0.161,0.477,0.411c-0.335,0.222-0.106,0.556-0.164,0.833C99.316,173.783,99.508,174.196,99.164,174.498z"/>
	<path fill-rule="evenodd" clip-rule="evenodd" fill="#A47A46" d="M52.332,65.777c-0.072-0.25,0.13-0.592-0.25-0.736
		c0.055-0.195,0.162-0.336,0.44-0.382C52.544,65.056,52.697,65.446,52.332,65.777z"/>
	<path fill-rule="evenodd" clip-rule="evenodd" fill="#A56A3C" d="M90.144,107.42c-2.118,0.728-3.602,2.052-5.142,3.457
		c-0.023,0.223-0.056,0.534-0.083,0.796c-0.705,1.141-2.098,1.551-2.643,2.844c-1.473,0.629-2.995,1.129-4.75,1.168
		c-0.139-1.014,0.457-1.614,0.983-2.221c0.202-0.232,0.496-0.414,0.782-0.541c2.086-0.926,3.939-2.239,5.835-3.482
		c1.199-0.785,2.424-1.522,3.8-1.97C89.229,107.372,89.521,107.237,90.144,107.42z"/>
	<path fill-rule="evenodd" clip-rule="evenodd" fill="#A66C3E" d="M123.583,114.743c0,0.156,0.026,0.321-0.148,0.415
		c-0.074-0.008-0.182,0.014-0.221-0.028c-0.92-0.995-1.854-1.978-2.741-3.002c-0.762-0.88-1.18-1.928-1.403-3.31
		c1.385,0.842,1.494,2.396,2.466,3.237c0.413-0.127,0.428-0.634,0.979-0.735c1.101,1.549,2.417,3.028,2.939,5.002l-0.034,0.032
		c-0.542-0.617-1.084-1.234-1.626-1.852c-0.06-0.066-0.127-0.083-0.188-0.034C123.506,114.549,123.519,114.646,123.583,114.743z"/>
	<path fill-rule="evenodd" clip-rule="evenodd" fill="#A66D3F" d="M112.271,110.35c-0.896,0.022-1.756,0.132-2.523-0.044
		c-0.359-0.199-0.47-0.443-0.497-0.687c-0.014-0.332,0.272-0.42,0.384-0.635c0.115-0.415-0.426-0.799-0.043-1.287
		c0.404-0.146,0.795,0.094,1.104,0.132c0.554,0.326,0.64,0.829,0.818,1.258C111.694,109.521,112.407,109.561,112.271,110.35z"/>
	<path fill-rule="evenodd" clip-rule="evenodd" fill="#A86F42" d="M121.704,115.969c-1.361-0.555-2.59-0.944-3.294-2.185
		c-0.657-1.155-1.758-1.944-2.538-3.001c-0.188-0.254-0.392-0.496-0.587-0.742c0.255-0.263,0.465-0.131,0.645,0.028
		c0.269,0.236,0.55,0.47,0.765,0.751c1.215,1.597,2.72,2.896,4.22,4.204C121.171,115.248,121.462,115.455,121.704,115.969z"/>
	<path fill-rule="evenodd" clip-rule="evenodd" fill="#A86F43" d="M92.687,110.413c-0.508,0.05-0.966,0.041-1.457-0.104
		c0.563-0.745,2.241-1.75,4.421-2.696C95.315,108.34,94.514,109.101,92.687,110.413z"/>
	<path fill-rule="evenodd" clip-rule="evenodd" fill="#A97043" d="M96.739,109.711c-0.813,1.064-1.847,1.938-2.59,3.093
		c-0.561-0.102-0.623-0.458-0.492-0.876c0.107-0.344,0.353-0.618,0.61-0.866c0.656-0.631,1.331-1.239,2.146-1.666
		C96.685,109.333,96.792,109.44,96.739,109.711z"/>
	<path fill-rule="evenodd" clip-rule="evenodd" fill="#B17C53" d="M125.42,116.354l0.034-0.032c0.945,0.429,1.907,0.843,1.953,2.18
		C126.394,117.872,125.733,117.145,125.42,116.354z"/>
	<path fill-rule="evenodd" clip-rule="evenodd" fill="#AF794E" d="M133.544,119.859c-0.949-0.697-1.691-1.437-2.3-2.348
		c0.372-0.258,0.57-0.078,0.677,0.114c0.376,0.678,0.893,1.199,1.565,1.578C133.632,119.285,133.693,119.434,133.544,119.859z"/>
	<path fill-rule="evenodd" clip-rule="evenodd" fill="#B8865F" d="M90.687,111.951c0.072,0.596-0.368,0.785-0.574,1.059
		c-0.307-0.005-0.402-0.13-0.529-0.33C89.79,112.252,90.311,112.214,90.687,111.951z"/>
	<path fill-rule="evenodd" clip-rule="evenodd" fill="#EAD8C8" d="M123.583,114.743c-0.342-0.272-0.473-0.668-0.666-1.04
		c0.48,0.096,0.744,0.381,0.877,0.8C123.66,114.526,123.613,114.627,123.583,114.743z"/>
	<path fill-rule="evenodd" clip-rule="evenodd" fill="#B8865E" d="M96.739,109.711c-0.04-0.176-0.16-0.269-0.326-0.315
		c0.243-0.242,0.479-0.499,0.977-0.393C97.257,109.349,97.013,109.542,96.739,109.711z"/>
	<path fill-rule="evenodd" clip-rule="evenodd" fill="#C7804A" d="M110.666,54.31c-0.054-0.621,0.117-1.234,0.382-1.818
		c0.419-0.925,1.136-1.405,2.172-1.373c0.997,0.031,1.65,0.535,2.048,1.529c0.486,1.215,0.442,2.408-0.081,3.59
		c-0.397,0.896-1.134,1.35-2.082,1.34c-1.005-0.01-1.75-0.531-2.101-1.489C110.801,55.534,110.616,54.957,110.666,54.31z"/>
	<path fill-rule="evenodd" clip-rule="evenodd" fill="#C8834E" d="M114.408,69.478c-0.2-0.755-0.083-1.424-0.106-2.144
		c0.888-0.284,1.712-0.121,2.502,0.189c0.556,0.455,0.504,0.959,0.188,1.539C116.228,69.477,115.396,69.616,114.408,69.478z"/>
	<path fill-rule="evenodd" clip-rule="evenodd" fill="#C7814B" d="M102.684,84.378c-0.148,0.546-0.462,0.83-0.913,1.028
		c-0.596,0.065-1.221,0.094-1.903,0.028c0-0.727,0-1.384,0-2.037C101.517,83.066,102.126,83.274,102.684,84.378z"/>
	<path fill-rule="evenodd" clip-rule="evenodd" fill="#C98450" d="M140.243,55.283c-0.906,0.155-1.677,0.16-2.452,0.018
		c0.08-0.971,0.536-2.301,1.216-3.532C139.558,52.911,139.804,54.088,140.243,55.283z"/>
	<path fill-rule="evenodd" clip-rule="evenodd" fill="#C98551" d="M85.849,51.717c0.358,1.166,0.716,2.332,1.095,3.563
		c-0.877,0.167-1.648,0.153-2.505,0.015c0.237-1.299,0.84-2.409,1.163-3.613C85.685,51.694,85.767,51.706,85.849,51.717z"/>
	<path fill-rule="evenodd" clip-rule="evenodd" fill="#C7814C" d="M102.31,71.252c-0.184-0.455,0.097-0.757,0.2-1.079
		c0.265-0.82,0.597-1.618,0.99-2.658c0.465,1.368,0.902,2.477,1.171,3.712C103.832,71.361,103.058,71.348,102.31,71.252z"/>
	<path fill-rule="evenodd" clip-rule="evenodd" fill="#C8834E" d="M94.155,67.636c0.198,0.319,0.335,0.599,0.379,0.909
		c-0.452,1.269-0.941,1.541-2.532,1.342c-0.128-0.823-0.045-1.675-0.046-2.58C92.736,67.094,93.437,67.167,94.155,67.636z"/>
	<path fill-rule="evenodd" clip-rule="evenodd" fill="#43643E" d="M66.191,171.268c0.823-0.87,0.431-1.796,0.549-2.698
		c1.125,0.449,1.4,1.376,1.608,2.348c-0.095,0.58-0.3,1.079-0.811,1.449C67.251,171.88,66.99,171.372,66.191,171.268z"/>
	<path fill-rule="evenodd" clip-rule="evenodd" fill="#5C7755" d="M65.652,174.114c-0.465,0.406-0.981,0.432-1.534,0.301
		c-0.014-0.469,0.364-0.606,0.566-0.871C65.063,173.686,65.376,173.849,65.652,174.114z"/>
</g>
</svg>
